<svg xmlns="http://www.w3.org/2000/svg" xmlns:xlink="http://www.w3.org/1999/xlink" version="1.1" id="v-2"><rect id="svg-background" width="100%" height="100%" fill="#F5F6F6"></rect><g id="v-3" class="viewport" transform="translate(-81, -97)"><g id="j_64" model-id="6314aee3-d3a8-4984-94c3-26523a05380e" class="link joint-theme-default"><path class="connection" stroke="#d2d2dc" d="M 279 660 410 660 S 420 660 420 650 L 420 450 S 420 440 425 440 L 430 440" id="v-977" stroke-width="1" fill="none"></path><path class="marker-source" fill="white" stroke="#d2d2dc" d="M 6 0 L 6 10 M 6 5 L 0 5 z" id="v-978" stroke-width="1" transform="translate(273,655) scale(1,1) rotate(0)"></path><path class="marker-target" fill="white" stroke="#d2d2dc" d="M 6 0 L 6 10 M 6 5 L 0 5 z" id="v-979" stroke-width="1" transform="translate(436,445) scale(1,1) rotate(-180)"></path><g class="labels" id="v-981"></g></g><g id="j_65" model-id="a81e320f-0170-4d4c-82de-2acacdcd0c0e" class="link joint-theme-default"><path class="connection" stroke="#d2d2dc" d="M 294 386 410 390 S 420 390 420 400 L 420 430 S 420 440 425 440 L 430 440" id="v-991" stroke-width="1" fill="none"></path><path class="marker-source" fill="white" stroke="#d2d2dc" d="M -5 0 L 5 5 M -5 5 L 5 5 M -5 10 L 5 5 M 5 5" id="v-992" stroke-width="1" transform="translate(289.14483642578125,381.149169921875) scale(1,1) rotate(1.684692368764786)"></path><path class="marker-target" fill="white" stroke="#d2d2dc" d="M 6 0 L 6 10 M 6 5 L 0 5 z" id="v-993" stroke-width="1" transform="translate(436,445) scale(1,1) rotate(-180)"></path><g class="labels" id="v-995"></g></g><g id="j_66" model-id="069abf62-8e99-4bda-8bd8-4bb077865fca" class="link joint-theme-default"><path class="connection" stroke="#d2d2dc" d="M 681 390 620 390 S 610 390 610 400 L 610 430 S 610 440 603 440 L 595 440" id="v-1004" stroke-width="1" fill="none"></path><path class="marker-source" fill="white" stroke="#d2d2dc" d="M -5 0 L 5 5 M -5 5 L 5 5 M -5 10 L 5 5 M 5 5" id="v-1005" stroke-width="1" transform="translate(686,395) scale(1,1) rotate(-180)"></path><path class="marker-target" fill="white" stroke="#d2d2dc" d="M 6 0 L 6 10 M 6 5 L 0 5 z" id="v-1006" stroke-width="1" transform="translate(589,435) scale(1,1) rotate(0)"></path><g class="labels" id="v-1008"></g></g><g id="j_67" model-id="0bb87980-78cd-45ef-95d5-7902270b39b1" class="link joint-theme-default"><path class="connection" stroke="#d2d2dc" d="M 835 210 860 210 S 870 210 870 220 L 870 360 S 870 370 865 370 L 859 370" id="v-1018" stroke-width="1" fill="none"></path><path class="marker-source" fill="white" stroke="#d2d2dc" d="M -5 0 L 5 5 M -5 5 L 5 5 M -5 10 L 5 5 M 5 5" id="v-1019" stroke-width="1" transform="translate(830,205) scale(1,1) rotate(0)"></path><path class="marker-target" fill="white" stroke="#d2d2dc" d="M 6 0 L 6 10 M 6 5 L 0 5 z" id="v-1020" stroke-width="1" transform="translate(853,365) scale(1,1) rotate(0)"></path><g class="labels" id="v-1022"></g></g><g id="j_68" model-id="72ba8c61-d0fa-4c19-9c86-00dbf5ebb24e" class="link joint-theme-default"><path class="connection" stroke="#d2d2dc" d="M 646 230 580 230 S 570 230 570 220 L 570 210 S 570 200 561 200 L 552 200" id="v-1032" stroke-width="1" fill="none"></path><path class="marker-source" fill="white" stroke="#d2d2dc" d="M -5 0 L 5 5 M -5 5 L 5 5 M -5 10 L 5 5 M 5 5" id="v-1033" stroke-width="1" transform="translate(651,235) scale(1,1) rotate(-180)"></path><path class="marker-target" fill="white" stroke="#d2d2dc" d="M 6 0 L 6 10 M 6 5 L 0 5 z" id="v-1034" stroke-width="1" transform="translate(546,195) scale(1,1) rotate(0)"></path><g class="labels" id="v-1036"></g></g><g id="j_69" model-id="a12a8563-f127-4284-ad93-08747db5ec93" class="link joint-theme-default"><path class="connection" stroke="#d2d2dc" d="M 101 220 96 220 S 90 220 90 230 L 90 350 S 90 360 100 360 L 116 360" id="v-1046" stroke-width="1" fill="none"></path><path class="marker-source" fill="white" stroke="#d2d2dc" d="M -5 0 L 5 5 M -5 5 L 5 5 M -5 10 L 5 5 M 5 5" id="v-1047" stroke-width="1" transform="translate(106,225) scale(1,1) rotate(-180)"></path><path class="marker-target" fill="white" stroke="#d2d2dc" d="M 6 0 L 6 10 M 6 5 L 0 5 z" id="v-1048" stroke-width="1" transform="translate(122,365) scale(1,1) rotate(-180)"></path><g class="labels" id="v-1050"></g></g><g id="j_70" model-id="569b55e7-5839-4319-b370-026e1df1b594" class="link joint-theme-default"><path class="connection" stroke="#d2d2dc" d="M 329 240 390 240 S 400 240 400 230 L 400 210 S 400 200 405 200 L 410 200" id="v-1060" stroke-width="1" fill="none"></path><path class="marker-source" fill="white" stroke="#d2d2dc" d="M -5 0 L 5 5 M -5 5 L 5 5 M -5 10 L 5 5 M 5 5" id="v-1061" stroke-width="1" transform="translate(324,235) scale(1,1) rotate(0)"></path><path class="marker-target" fill="white" stroke="#d2d2dc" d="M 6 0 L 6 10 M 6 5 L 0 5 z" id="v-1062" stroke-width="1" transform="translate(416,205) scale(1,1) rotate(-180)"></path><g class="labels" id="v-1064"></g></g><g id="j_57" model-id="9ee14baa-1fb1-4c2f-929a-3502a91ea175" class="element basic newt joint-theme-default" magnet="false" fill="#ffffff" stroke="none" transform="translate(120,581)" font-family="Roboto,'Helvetica Neue', sans-serif"><g class="joint-table" onmousedown="QdbdJS.onTableMouseDown(this)" onmouseup="QdbdJS.onTableMouseUp(this)" id="v-860">
          <rect x="0" y="0" width="153" height="38" class="joint-table-title" onmousedown="QdbdJS.onRowMouseDown()" onmousemove="QdbdJS.onRowMouseMove()" onmouseup="QdbdJS.onRowMouseUp(5)" fill="#005aa0" stroke="#005aa0"></rect>
          <text x="14" y="24" text-anchor="start" class="joint-table-title-text" id="v-871" pointer-events="none" font-size="14px">profiles</text>
          <g class="joint-table-rows">
            
        <g class="joint-table-row-group" onmousedown="QdbdJS.onRowMouseDown()" onmousemove="QdbdJS.onRowMouseMove()" onmouseup="QdbdJS.onRowMouseUp(7)">
          <rect x="0" y="38" class="joint-table-row" width="153" height="25" stroke="none"></rect>
          
          
          <text x="0" y="60" class="joint-field-text" id="v-872" pointer-events="none" fill="#333" font-size="12px">
            <tspan x="14" y="60" text-anchor="start" class="joint-field-name pk" fill="#005aa0" font-weight="bold">
              id
            </tspan>
            <tspan x="139" y="60" text-anchor="end" class="joint-field-type" fill="#adb1b5">
              int
            </tspan>
          </text>
          <path class="pk-key" transform="matrix(0.7, 0, 0, 0.7, 102, 47)" d="M22.208,2.205l0.167,0.006l0.167,0.011l0.166,0.015l0.165,0.019l0.164,0.023l0.163,0.028l0.161,0.031l0.16,0.035l0.158,0.039l0.157,0.043l0.156,0.047l0.153,0.051l0.152,0.054l0.151,0.058l0.148,0.061l0.146,0.065l0.145,0.068l0.142,0.072l0.141,0.075l0.138,0.078l0.136,0.082l0.134,0.085l0.132,0.087l0.129,0.091l0.127,0.094l0.125,0.097l0.122,0.099l0.12,0.103l0.117,0.105l0.114,0.108l0.112,0.11l0.11,0.114l0.106,0.116l0.104,0.118l0.101,0.121l0.098,0.123l0.096,0.126l0.092,0.128l0.089,0.13l0.087,0.133l0.083,0.135l0.08,0.137l0.077,0.139l0.074,0.141l0.07,0.144l0.067,0.145l0.064,0.147l0.06,0.149l0.056,0.151l0.053,0.152l0.05,0.154l0.046,0.156l0.042,0.157l0.038,0.159l0.035,0.16l0.03,0.162l0.027,0.162l0.023,0.164l0.018,0.165l0.015,0.167l0.01,0.167l0.007,0.168l0.002,0.168l-0.002,0.169l-0.007,0.168l-0.01,0.167l-0.015,0.166l-0.018,0.166l-0.023,0.163l-0.027,0.163l-0.03,0.162l-0.035,0.16l-0.038,0.159l-0.042,0.157l-0.046,0.156l-0.05,0.154l-0.053,0.152l-0.056,0.151l-0.06,0.149l-0.064,0.147l-0.067,0.145l-0.07,0.143l-0.074,0.142l-0.077,0.139l-0.08,0.137l-0.083,0.135l-0.087,0.132l-0.089,0.131l-0.092,0.128l-0.096,0.125l-0.098,0.124l-0.101,0.121l-0.104,0.118l-0.106,0.116l-0.11,0.113l-0.112,0.111l-0.114,0.108l-0.117,0.105l-0.12,0.103l-0.122,0.099l-0.125,0.097l-0.127,0.094l-0.129,0.09l-0.132,0.088l-0.134,0.085l-0.136,0.081l-0.138,0.078l-0.141,0.076l-0.142,0.071l-0.145,0.069l-0.146,0.064l-0.148,0.062l-0.151,0.058l-0.152,0.054l-0.153,0.05l-0.156,0.047l-0.157,0.043l-0.158,0.039l-0.16,0.036l-0.161,0.031l-0.163,0.027l-0.164,0.024l-0.165,0.019l-0.166,0.015l-0.167,0.01l-0.167,0.007l-0.169,0.002l-0.168,-0.002l-0.168,-0.007l-0.167,-0.01l-0.166,-0.015l-0.165,-0.019l-0.164,-0.024l-0.163,-0.027l-0.161,-0.031l-0.16,-0.036l-0.158,-0.039l-0.157,-0.043l-0.156,-0.047l-0.153,-0.05l-0.152,-0.054l-0.15,-0.058l-0.149,-0.062l-0.146,-0.064l-0.145,-0.069l-0.142,-0.071l-0.141,-0.076l-0.138,-0.078l-0.136,-0.081l-0.134,-0.085l-0.132,-0.088l-0.129,-0.09l-0.127,-0.094l-0.125,-0.097l-0.122,-0.099l-0.12,-0.103l-0.117,-0.105l-0.114,-0.108l-0.112,-0.111l-0.11,-0.113l-0.106,-0.116l-0.104,-0.118l-0.101,-0.121l-0.098,-0.123l-0.096,-0.126l-0.092,-0.128l-0.089,-0.131l-0.087,-0.132l-0.083,-0.135l-0.08,-0.137l-0.077,-0.139l-0.073,-0.142l-0.071,-0.143l-0.067,-0.145l-0.063,-0.147l-0.061,-0.149l-0.056,-0.151l-0.053,-0.152l-0.05,-0.154l-0.046,-0.156l-0.042,-0.157l-0.038,-0.159l-0.035,-0.16l-0.03,-0.162l-0.027,-0.163l-0.023,-0.164l-0.018,-0.165l-0.015,-0.166l-0.01,-0.167l-0.007,-0.168l-0.002,-0.169l0.002,-0.168l0.007,-0.168l0.01,-0.167l0.015,-0.167l0.018,-0.165l0.023,-0.164l0.027,-0.162l0.03,-0.162l0.035,-0.16l0.038,-0.159l0.042,-0.157l0.046,-0.156l0.05,-0.154l0.053,-0.152l0.056,-0.151l0.061,-0.149l0.063,-0.147l0.067,-0.145l0.071,-0.144l0.073,-0.141l0.077,-0.139l0.08,-0.137l0.083,-0.135l0.087,-0.133l0.089,-0.13l0.092,-0.128l0.096,-0.126l0.098,-0.123l0.101,-0.121l0.104,-0.118l0.106,-0.116l0.11,-0.114l0.112,-0.11l0.114,-0.108l0.117,-0.105l0.12,-0.103l0.122,-0.099l0.125,-0.097l0.127,-0.094l0.129,-0.091l0.132,-0.087l0.134,-0.085l0.136,-0.081l0.138,-0.079l0.141,-0.075l0.142,-0.072l0.145,-0.068l0.146,-0.065l0.149,-0.061l0.15,-0.058l0.152,-0.054l0.153,-0.051l0.156,-0.047l0.157,-0.043l0.158,-0.039l0.16,-0.035l0.161,-0.031l0.163,-0.028l0.164,-0.023l0.165,-0.019l0.166,-0.015l0.167,-0.011l0.167,-0.006l0.169,-0.002l0.169,0.002Zm-0.232,4.128l-0.062,0.002l-0.061,0.004l-0.061,0.006l-0.06,0.007l-0.059,0.008l-0.059,0.01l-0.059,0.011l-0.058,0.013l-0.057,0.014l-0.057,0.016l-0.056,0.017l-0.055,0.018l-0.056,0.02l-0.054,0.021l-0.054,0.022l-0.053,0.024l-0.053,0.025l-0.052,0.026l-0.052,0.027l-0.05,0.029l-0.051,0.03l-0.049,0.031l-0.049,0.033l-0.048,0.033l-0.047,0.035l-0.046,0.036l-0.046,0.037l-0.044,0.039l-0.044,0.039l-0.043,0.04l-0.042,0.042l-0.041,0.042l-0.04,0.044l-0.039,0.044l-0.038,0.046l-0.037,0.046l-0.036,0.048l-0.035,0.048l-0.033,0.049l-0.033,0.05l-0.031,0.05l-0.03,0.052l-0.029,0.052l-0.028,0.053l-0.026,0.054l-0.025,0.054l-0.024,0.055l-0.023,0.056l-0.021,0.056l-0.02,0.057l-0.018,0.058l-0.017,0.059l-0.016,0.059l-0.014,0.059l-0.013,0.06l-0.012,0.061l-0.01,0.062l-0.009,0.062l-0.007,0.062l-0.005,0.064l-0.004,0.063l-0.003,0.065l0,0.065l0,0.066l0.003,0.064l0.004,0.064l0.005,0.063l0.007,0.063l0.009,0.062l0.01,0.062l0.012,0.06l0.013,0.061l0.014,0.059l0.016,0.059l0.017,0.058l0.018,0.058l0.02,0.057l0.021,0.057l0.023,0.055l0.024,0.056l0.025,0.054l0.026,0.054l0.028,0.053l0.029,0.052l0.03,0.051l0.031,0.051l0.033,0.05l0.033,0.049l0.035,0.048l0.036,0.047l0.037,0.047l0.038,0.045l0.039,0.045l0.04,0.043l0.041,0.043l0.042,0.041l0.043,0.041l0.044,0.039l0.044,0.038l0.046,0.037l0.046,0.036l0.047,0.035l0.048,0.034l0.049,0.032l0.049,0.032l0.051,0.03l0.05,0.028l0.052,0.028l0.052,0.026l0.053,0.025l0.053,0.024l0.054,0.022l0.054,0.021l0.056,0.02l0.055,0.018l0.056,0.017l0.057,0.015l0.057,0.015l0.058,0.012l0.059,0.012l0.059,0.01l0.059,0.008l0.06,0.007l0.061,0.005l0.061,0.004l0.062,0.003l0.063,0.001l0.063,-0.001l0.062,-0.003l0.061,-0.004l0.061,-0.005l0.06,-0.007l0.059,-0.008l0.059,-0.01l0.059,-0.012l0.058,-0.012l0.057,-0.015l0.057,-0.015l0.056,-0.017l0.056,-0.018l0.055,-0.02l0.054,-0.021l0.054,-0.022l0.053,-0.024l0.053,-0.025l0.052,-0.026l0.052,-0.028l0.051,-0.028l0.05,-0.031l0.049,-0.031l0.049,-0.032l0.048,-0.034l0.047,-0.035l0.046,-0.036l0.046,-0.037l0.045,-0.038l0.043,-0.039l0.043,-0.041l0.042,-0.041l0.041,-0.043l0.04,-0.043l0.039,-0.045l0.038,-0.045l0.037,-0.046l0.036,-0.048l0.035,-0.048l0.033,-0.049l0.033,-0.05l0.031,-0.05l0.03,-0.052l0.029,-0.052l0.028,-0.053l0.026,-0.054l0.025,-0.054l0.024,-0.055l0.023,-0.056l0.021,-0.057l0.02,-0.057l0.018,-0.058l0.017,-0.058l0.016,-0.059l0.014,-0.059l0.013,-0.061l0.012,-0.06l0.01,-0.062l0.009,-0.062l0.007,-0.063l0.005,-0.063l0.004,-0.064l0.003,-0.064l0.001,-0.066l-0.001,-0.065l-0.003,-0.064l-0.004,-0.064l-0.005,-0.064l-0.007,-0.062l-0.009,-0.062l-0.01,-0.062l-0.012,-0.061l-0.013,-0.06l-0.014,-0.059l-0.016,-0.059l-0.017,-0.059l-0.018,-0.058l-0.02,-0.057l-0.021,-0.056l-0.023,-0.056l-0.024,-0.055l-0.025,-0.054l-0.026,-0.054l-0.028,-0.053l-0.029,-0.052l-0.03,-0.052l-0.031,-0.05l-0.033,-0.05l-0.033,-0.049l-0.035,-0.048l-0.036,-0.048l-0.037,-0.046l-0.038,-0.046l-0.039,-0.044l-0.04,-0.044l-0.041,-0.042l-0.042,-0.042l-0.043,-0.04l-0.043,-0.039l-0.045,-0.039l-0.046,-0.037l-0.046,-0.036l-0.047,-0.035l-0.048,-0.033l-0.049,-0.033l-0.049,-0.031l-0.05,-0.03l-0.051,-0.029l-0.052,-0.027l-0.052,-0.026l-0.053,-0.025l-0.053,-0.024l-0.054,-0.022l-0.054,-0.021l-0.055,-0.02l-0.056,-0.018l-0.056,-0.017l-0.057,-0.016l-0.057,-0.014l-0.058,-0.013l-0.059,-0.011l-0.059,-0.01l-0.059,-0.008l-0.06,-0.007l-0.061,-0.006l-0.061,-0.004l-0.062,-0.002l-0.063,-0.001l-0.063,0.001Z" fill="rgba(173,177,181,0.7)"></path>
                <rect class="pk-key" x="103" y="51.5" width="10.2" height="3" fill="rgba(173,177,181,0.7)"></rect>
                <rect class="pk-key" x="104.2" y="54.5" width="2" height="3" fill="rgba(173,177,181,0.7)"></rect>
                <rect class="pk-key" x="108" y="54.5" width="2" height="3" fill="rgba(173,177,181,0.7)"></rect>
          
        </g>
        <g class="joint-table-row-group" onmousedown="QdbdJS.onRowMouseDown()" onmousemove="QdbdJS.onRowMouseMove()" onmouseup="QdbdJS.onRowMouseUp(8)">
          <rect x="0" y="63" class="joint-table-row" width="153" height="25" stroke="none"></rect>
          
          
          <text x="0" y="85" class="joint-field-text" id="v-873" pointer-events="none" fill="#333" font-size="12px">
            <tspan x="14" y="85" text-anchor="start" class="joint-field-name fk" fill="#222" font-weight="bold">
              user_id
            </tspan>
            <tspan x="139" y="85" text-anchor="end" class="joint-field-type" fill="#adb1b5">
              int
            </tspan>
          </text>
          
          
        </g>
        <g class="joint-table-row-group" onmousedown="QdbdJS.onRowMouseDown()" onmousemove="QdbdJS.onRowMouseMove()" onmouseup="QdbdJS.onRowMouseUp(9)">
          <rect x="0" y="88" class="joint-table-row" width="153" height="25" stroke="none"></rect>
          
          
          <text x="0" y="110" class="joint-field-text" id="v-874" pointer-events="none" fill="#333" font-size="12px">
            <tspan x="14" y="110" text-anchor="start" class="joint-field-name ">
              image
            </tspan>
            <tspan x="139" y="110" text-anchor="end" class="joint-field-type" fill="#adb1b5">
              string
            </tspan>
          </text>
          
          
        </g>
        <g class="joint-table-row-group" onmousedown="QdbdJS.onRowMouseDown()" onmousemove="QdbdJS.onRowMouseMove()" onmouseup="QdbdJS.onRowMouseUp(10)">
          <rect x="0" y="113" class="joint-table-row" width="153" height="25" stroke="none"></rect>
          
          
          <text x="0" y="135" class="joint-field-text" id="v-875" pointer-events="none" fill="#333" font-size="12px">
            <tspan x="14" y="135" text-anchor="start" class="joint-field-name ">
              first_name
            </tspan>
            <tspan x="139" y="135" text-anchor="end" class="joint-field-type" fill="#adb1b5">
              string
            </tspan>
          </text>
          
          
        </g>
        <g class="joint-table-row-group" onmousedown="QdbdJS.onRowMouseDown()" onmousemove="QdbdJS.onRowMouseMove()" onmouseup="QdbdJS.onRowMouseUp(11)">
          <rect x="0" y="138" class="joint-table-row" width="153" height="31" stroke="none"></rect>
          
          
          <text x="0" y="160" class="joint-field-text" id="v-876" pointer-events="none" fill="#333" font-size="12px">
            <tspan x="14" y="160" text-anchor="start" class="joint-field-name ">
              last_name
            </tspan>
            <tspan x="139" y="160" text-anchor="end" class="joint-field-type" fill="#adb1b5">
              string?
            </tspan>
          </text>
          
          
        <rect x="0" y="169" class="joint-table-row" width="153" height="6" stroke="none"></rect>
        
        </g>
          </g>
        </g></g><g id="j_58" model-id="8aa3d197-0ad8-4699-9160-27de6bcbe3a8" class="element basic newt joint-theme-default" magnet="false" fill="#ffffff" stroke="none" transform="translate(436,387)" font-family="Roboto,'Helvetica Neue', sans-serif"><g class="joint-table" onmousedown="QdbdJS.onTableMouseDown(this)" onmouseup="QdbdJS.onTableMouseUp(this)" id="v-878">
          <rect x="0" y="0" width="153" height="38" class="joint-table-title" onmousedown="QdbdJS.onRowMouseDown()" onmousemove="QdbdJS.onRowMouseMove()" onmouseup="QdbdJS.onRowMouseUp(13)" fill="#005aa0" stroke="#005aa0"></rect>
          <text x="14" y="24" text-anchor="start" class="joint-table-title-text" id="v-885" pointer-events="none" font-size="14px">users</text>
          <g class="joint-table-rows">
            
        <g class="joint-table-row-group" onmousedown="QdbdJS.onRowMouseDown()" onmousemove="QdbdJS.onRowMouseMove()" onmouseup="QdbdJS.onRowMouseUp(15)">
          <rect x="0" y="38" class="joint-table-row" width="153" height="25" stroke="none"></rect>
          
          
          <text x="0" y="60" class="joint-field-text" id="v-886" pointer-events="none" fill="#333" font-size="12px">
            <tspan x="14" y="60" text-anchor="start" class="joint-field-name pk" fill="#005aa0" font-weight="bold">
              id
            </tspan>
            <tspan x="139" y="60" text-anchor="end" class="joint-field-type" fill="#adb1b5">
              int
            </tspan>
          </text>
          <path class="pk-key" transform="matrix(0.7, 0, 0, 0.7, 102, 47)" d="M22.208,2.205l0.167,0.006l0.167,0.011l0.166,0.015l0.165,0.019l0.164,0.023l0.163,0.028l0.161,0.031l0.16,0.035l0.158,0.039l0.157,0.043l0.156,0.047l0.153,0.051l0.152,0.054l0.151,0.058l0.148,0.061l0.146,0.065l0.145,0.068l0.142,0.072l0.141,0.075l0.138,0.078l0.136,0.082l0.134,0.085l0.132,0.087l0.129,0.091l0.127,0.094l0.125,0.097l0.122,0.099l0.12,0.103l0.117,0.105l0.114,0.108l0.112,0.11l0.11,0.114l0.106,0.116l0.104,0.118l0.101,0.121l0.098,0.123l0.096,0.126l0.092,0.128l0.089,0.13l0.087,0.133l0.083,0.135l0.08,0.137l0.077,0.139l0.074,0.141l0.07,0.144l0.067,0.145l0.064,0.147l0.06,0.149l0.056,0.151l0.053,0.152l0.05,0.154l0.046,0.156l0.042,0.157l0.038,0.159l0.035,0.16l0.03,0.162l0.027,0.162l0.023,0.164l0.018,0.165l0.015,0.167l0.01,0.167l0.007,0.168l0.002,0.168l-0.002,0.169l-0.007,0.168l-0.01,0.167l-0.015,0.166l-0.018,0.166l-0.023,0.163l-0.027,0.163l-0.03,0.162l-0.035,0.16l-0.038,0.159l-0.042,0.157l-0.046,0.156l-0.05,0.154l-0.053,0.152l-0.056,0.151l-0.06,0.149l-0.064,0.147l-0.067,0.145l-0.07,0.143l-0.074,0.142l-0.077,0.139l-0.08,0.137l-0.083,0.135l-0.087,0.132l-0.089,0.131l-0.092,0.128l-0.096,0.125l-0.098,0.124l-0.101,0.121l-0.104,0.118l-0.106,0.116l-0.11,0.113l-0.112,0.111l-0.114,0.108l-0.117,0.105l-0.12,0.103l-0.122,0.099l-0.125,0.097l-0.127,0.094l-0.129,0.09l-0.132,0.088l-0.134,0.085l-0.136,0.081l-0.138,0.078l-0.141,0.076l-0.142,0.071l-0.145,0.069l-0.146,0.064l-0.148,0.062l-0.151,0.058l-0.152,0.054l-0.153,0.05l-0.156,0.047l-0.157,0.043l-0.158,0.039l-0.16,0.036l-0.161,0.031l-0.163,0.027l-0.164,0.024l-0.165,0.019l-0.166,0.015l-0.167,0.01l-0.167,0.007l-0.169,0.002l-0.168,-0.002l-0.168,-0.007l-0.167,-0.01l-0.166,-0.015l-0.165,-0.019l-0.164,-0.024l-0.163,-0.027l-0.161,-0.031l-0.16,-0.036l-0.158,-0.039l-0.157,-0.043l-0.156,-0.047l-0.153,-0.05l-0.152,-0.054l-0.15,-0.058l-0.149,-0.062l-0.146,-0.064l-0.145,-0.069l-0.142,-0.071l-0.141,-0.076l-0.138,-0.078l-0.136,-0.081l-0.134,-0.085l-0.132,-0.088l-0.129,-0.09l-0.127,-0.094l-0.125,-0.097l-0.122,-0.099l-0.12,-0.103l-0.117,-0.105l-0.114,-0.108l-0.112,-0.111l-0.11,-0.113l-0.106,-0.116l-0.104,-0.118l-0.101,-0.121l-0.098,-0.123l-0.096,-0.126l-0.092,-0.128l-0.089,-0.131l-0.087,-0.132l-0.083,-0.135l-0.08,-0.137l-0.077,-0.139l-0.073,-0.142l-0.071,-0.143l-0.067,-0.145l-0.063,-0.147l-0.061,-0.149l-0.056,-0.151l-0.053,-0.152l-0.05,-0.154l-0.046,-0.156l-0.042,-0.157l-0.038,-0.159l-0.035,-0.16l-0.03,-0.162l-0.027,-0.163l-0.023,-0.164l-0.018,-0.165l-0.015,-0.166l-0.01,-0.167l-0.007,-0.168l-0.002,-0.169l0.002,-0.168l0.007,-0.168l0.01,-0.167l0.015,-0.167l0.018,-0.165l0.023,-0.164l0.027,-0.162l0.03,-0.162l0.035,-0.16l0.038,-0.159l0.042,-0.157l0.046,-0.156l0.05,-0.154l0.053,-0.152l0.056,-0.151l0.061,-0.149l0.063,-0.147l0.067,-0.145l0.071,-0.144l0.073,-0.141l0.077,-0.139l0.08,-0.137l0.083,-0.135l0.087,-0.133l0.089,-0.13l0.092,-0.128l0.096,-0.126l0.098,-0.123l0.101,-0.121l0.104,-0.118l0.106,-0.116l0.11,-0.114l0.112,-0.11l0.114,-0.108l0.117,-0.105l0.12,-0.103l0.122,-0.099l0.125,-0.097l0.127,-0.094l0.129,-0.091l0.132,-0.087l0.134,-0.085l0.136,-0.081l0.138,-0.079l0.141,-0.075l0.142,-0.072l0.145,-0.068l0.146,-0.065l0.149,-0.061l0.15,-0.058l0.152,-0.054l0.153,-0.051l0.156,-0.047l0.157,-0.043l0.158,-0.039l0.16,-0.035l0.161,-0.031l0.163,-0.028l0.164,-0.023l0.165,-0.019l0.166,-0.015l0.167,-0.011l0.167,-0.006l0.169,-0.002l0.169,0.002Zm-0.232,4.128l-0.062,0.002l-0.061,0.004l-0.061,0.006l-0.06,0.007l-0.059,0.008l-0.059,0.01l-0.059,0.011l-0.058,0.013l-0.057,0.014l-0.057,0.016l-0.056,0.017l-0.055,0.018l-0.056,0.02l-0.054,0.021l-0.054,0.022l-0.053,0.024l-0.053,0.025l-0.052,0.026l-0.052,0.027l-0.05,0.029l-0.051,0.03l-0.049,0.031l-0.049,0.033l-0.048,0.033l-0.047,0.035l-0.046,0.036l-0.046,0.037l-0.044,0.039l-0.044,0.039l-0.043,0.04l-0.042,0.042l-0.041,0.042l-0.04,0.044l-0.039,0.044l-0.038,0.046l-0.037,0.046l-0.036,0.048l-0.035,0.048l-0.033,0.049l-0.033,0.05l-0.031,0.05l-0.03,0.052l-0.029,0.052l-0.028,0.053l-0.026,0.054l-0.025,0.054l-0.024,0.055l-0.023,0.056l-0.021,0.056l-0.02,0.057l-0.018,0.058l-0.017,0.059l-0.016,0.059l-0.014,0.059l-0.013,0.06l-0.012,0.061l-0.01,0.062l-0.009,0.062l-0.007,0.062l-0.005,0.064l-0.004,0.063l-0.003,0.065l0,0.065l0,0.066l0.003,0.064l0.004,0.064l0.005,0.063l0.007,0.063l0.009,0.062l0.01,0.062l0.012,0.06l0.013,0.061l0.014,0.059l0.016,0.059l0.017,0.058l0.018,0.058l0.02,0.057l0.021,0.057l0.023,0.055l0.024,0.056l0.025,0.054l0.026,0.054l0.028,0.053l0.029,0.052l0.03,0.051l0.031,0.051l0.033,0.05l0.033,0.049l0.035,0.048l0.036,0.047l0.037,0.047l0.038,0.045l0.039,0.045l0.04,0.043l0.041,0.043l0.042,0.041l0.043,0.041l0.044,0.039l0.044,0.038l0.046,0.037l0.046,0.036l0.047,0.035l0.048,0.034l0.049,0.032l0.049,0.032l0.051,0.03l0.05,0.028l0.052,0.028l0.052,0.026l0.053,0.025l0.053,0.024l0.054,0.022l0.054,0.021l0.056,0.02l0.055,0.018l0.056,0.017l0.057,0.015l0.057,0.015l0.058,0.012l0.059,0.012l0.059,0.01l0.059,0.008l0.06,0.007l0.061,0.005l0.061,0.004l0.062,0.003l0.063,0.001l0.063,-0.001l0.062,-0.003l0.061,-0.004l0.061,-0.005l0.06,-0.007l0.059,-0.008l0.059,-0.01l0.059,-0.012l0.058,-0.012l0.057,-0.015l0.057,-0.015l0.056,-0.017l0.056,-0.018l0.055,-0.02l0.054,-0.021l0.054,-0.022l0.053,-0.024l0.053,-0.025l0.052,-0.026l0.052,-0.028l0.051,-0.028l0.05,-0.031l0.049,-0.031l0.049,-0.032l0.048,-0.034l0.047,-0.035l0.046,-0.036l0.046,-0.037l0.045,-0.038l0.043,-0.039l0.043,-0.041l0.042,-0.041l0.041,-0.043l0.04,-0.043l0.039,-0.045l0.038,-0.045l0.037,-0.046l0.036,-0.048l0.035,-0.048l0.033,-0.049l0.033,-0.05l0.031,-0.05l0.03,-0.052l0.029,-0.052l0.028,-0.053l0.026,-0.054l0.025,-0.054l0.024,-0.055l0.023,-0.056l0.021,-0.057l0.02,-0.057l0.018,-0.058l0.017,-0.058l0.016,-0.059l0.014,-0.059l0.013,-0.061l0.012,-0.06l0.01,-0.062l0.009,-0.062l0.007,-0.063l0.005,-0.063l0.004,-0.064l0.003,-0.064l0.001,-0.066l-0.001,-0.065l-0.003,-0.064l-0.004,-0.064l-0.005,-0.064l-0.007,-0.062l-0.009,-0.062l-0.01,-0.062l-0.012,-0.061l-0.013,-0.06l-0.014,-0.059l-0.016,-0.059l-0.017,-0.059l-0.018,-0.058l-0.02,-0.057l-0.021,-0.056l-0.023,-0.056l-0.024,-0.055l-0.025,-0.054l-0.026,-0.054l-0.028,-0.053l-0.029,-0.052l-0.03,-0.052l-0.031,-0.05l-0.033,-0.05l-0.033,-0.049l-0.035,-0.048l-0.036,-0.048l-0.037,-0.046l-0.038,-0.046l-0.039,-0.044l-0.04,-0.044l-0.041,-0.042l-0.042,-0.042l-0.043,-0.04l-0.043,-0.039l-0.045,-0.039l-0.046,-0.037l-0.046,-0.036l-0.047,-0.035l-0.048,-0.033l-0.049,-0.033l-0.049,-0.031l-0.05,-0.03l-0.051,-0.029l-0.052,-0.027l-0.052,-0.026l-0.053,-0.025l-0.053,-0.024l-0.054,-0.022l-0.054,-0.021l-0.055,-0.02l-0.056,-0.018l-0.056,-0.017l-0.057,-0.016l-0.057,-0.014l-0.058,-0.013l-0.059,-0.011l-0.059,-0.01l-0.059,-0.008l-0.06,-0.007l-0.061,-0.006l-0.061,-0.004l-0.062,-0.002l-0.063,-0.001l-0.063,0.001Z" fill="rgba(173,177,181,0.7)"></path>
                <rect class="pk-key" x="103" y="51.5" width="10.2" height="3" fill="rgba(173,177,181,0.7)"></rect>
                <rect class="pk-key" x="104.2" y="54.5" width="2" height="3" fill="rgba(173,177,181,0.7)"></rect>
                <rect class="pk-key" x="108" y="54.5" width="2" height="3" fill="rgba(173,177,181,0.7)"></rect>
          
        </g>
        <g class="joint-table-row-group" onmousedown="QdbdJS.onRowMouseDown()" onmousemove="QdbdJS.onRowMouseMove()" onmouseup="QdbdJS.onRowMouseUp(16)">
          <rect x="0" y="63" class="joint-table-row" width="153" height="25" stroke="none"></rect>
          
          
          <text x="0" y="85" class="joint-field-text" id="v-887" pointer-events="none" fill="#333" font-size="12px">
            <tspan x="14" y="85" text-anchor="start" class="joint-field-name ">
              email
            </tspan>
            <tspan x="139" y="85" text-anchor="end" class="joint-field-type" fill="#adb1b5">
              string
            </tspan>
          </text>
          <path class="uniq-key" transform="matrix(0.39999999999999997, 0, 0, 0.39999999999999997, 75, 72)" d="M9.176,16.069l0.177,0.006l0.176,0.01l0.175,0.014l0.175,0.018l0.172,0.021l0.173,0.026l0.17,0.029l0.169,0.033l0.168,0.036l0.166,0.041l0.165,0.043l0.164,0.048l0.162,0.051l0.16,0.054l0.159,0.058l0.157,0.061l0.155,0.065l0.153,0.067l0.151,0.072l0.149,0.074l0.147,0.078l0.145,0.08l0.144,0.084l0.141,0.088l0.138,0.09l0.136,0.093l0.134,0.096l0.132,0.099l0.129,0.103l0.127,0.105l0.124,0.108l0.121,0.11l0.12,0.115l0.116,0.116l0.113,0.119l0.11,0.123l0.107,0.124l0.105,0.128l0.101,0.13l0.098,0.133l0.095,0.135l0.092,0.138l0.088,0.141l0.084,0.142l0.081,0.146l0.078,0.148l0.073,0.149l0.067,0.146l0.036,0.083l0.033,0.078l0.031,0.078l0.031,0.078l0.029,0.079l0.029,0.08l0.027,0.08l0.026,0.08l0.025,0.081l0.024,0.082l0.023,0.081l0.022,0.082l0.021,0.084l0.02,0.083l0.018,0.083l0.018,0.084l0.016,0.084l0.015,0.085l0.014,0.085l0.013,0.086l0.012,0.085l0.01,0.086l0.009,0.087l0.008,0.086l0.007,0.087l0.006,0.087l0.004,0.087l0.003,0.088l0.002,0.088l0.001,0.088l-0.001,0.087l-0.002,0.088l-0.003,0.088l-0.004,0.088l-0.006,0.087l-0.007,0.086l-0.008,0.086l-0.009,0.087l-0.01,0.086l-0.012,0.086l-0.013,0.085l-0.014,0.085l-0.015,0.085l-0.016,0.085l-0.018,0.083l-0.018,0.083l-0.02,0.084l-0.021,0.083l-0.022,0.082l-0.023,0.081l-0.024,0.082l-0.025,0.081l-0.026,0.08l-0.027,0.08l-0.029,0.08l-0.029,0.079l-0.031,0.078l-0.031,0.078l-0.033,0.078l-0.036,0.083l-0.067,0.146l-0.073,0.15l-0.078,0.147l-0.081,0.146l-0.084,0.143l-0.088,0.14l-0.092,0.138l-0.095,0.135l-0.098,0.133l-0.101,0.13l-0.105,0.128l-0.107,0.125l-0.11,0.122l-0.113,0.119l-0.116,0.117l-0.12,0.114l-0.121,0.111l-0.124,0.108l-0.127,0.105l-0.129,0.102l-0.132,0.099l-0.134,0.096l-0.136,0.094l-0.138,0.089l-0.141,0.088l-0.144,0.084l-0.145,0.081l-0.147,0.077l-0.149,0.075l-0.151,0.071l-0.153,0.068l-0.155,0.064l-0.157,0.061l-0.159,0.058l-0.16,0.055l-0.162,0.051l-0.164,0.047l-0.164,0.044l-0.167,0.04l-0.168,0.037l-0.169,0.032l-0.17,0.029l-0.173,0.026l-0.172,0.021l-0.175,0.018l-0.175,0.014l-0.176,0.01l-0.177,0.006l-0.178,0.002l-0.177,-0.002l-0.178,-0.006l-0.176,-0.01l-0.175,-0.014l-0.174,-0.018l-0.173,-0.021l-0.172,-0.026l-0.171,-0.029l-0.168,-0.032l-0.169,-0.037l-0.166,-0.04l-0.165,-0.044l-0.164,-0.047l-0.162,-0.051l-0.16,-0.055l-0.158,-0.058l-0.157,-0.061l-0.155,-0.064l-0.153,-0.068l-0.151,-0.071l-0.15,-0.075l-0.147,-0.077l-0.145,-0.081l-0.143,-0.084l-0.141,-0.087l-0.139,-0.09l-0.136,-0.094l-0.134,-0.096l-0.132,-0.099l-0.129,-0.102l-0.127,-0.105l-0.124,-0.108l-0.121,-0.111l-0.119,-0.114l-0.116,-0.117l-0.113,-0.119l-0.111,-0.122l-0.107,-0.125l-0.104,-0.127l-0.102,-0.131l-0.098,-0.133l-0.095,-0.135l-0.091,-0.138l-0.088,-0.14l-0.085,-0.143l-0.081,-0.146l-0.077,-0.147l-0.074,-0.15l-0.067,-0.146l-0.036,-0.083l-0.032,-0.077l-0.032,-0.079l-0.03,-0.078l-0.03,-0.079l-0.028,-0.079l-0.027,-0.08l-0.027,-0.081l-0.025,-0.081l-0.024,-0.082l-0.023,-0.081l-0.022,-0.082l-0.021,-0.083l-0.02,-0.083l-0.018,-0.084l-0.018,-0.084l-0.016,-0.084l-0.015,-0.085l-0.014,-0.085l-0.013,-0.085l-0.011,-0.086l-0.011,-0.086l-0.009,-0.086l-0.008,-0.086l-0.007,-0.088l-0.006,-0.087l-0.004,-0.087l-0.003,-0.087l-0.002,-0.088l-0.001,-0.088l0.001,-0.089l0.002,-0.087l0.003,-0.088l0.004,-0.087l0.006,-0.087l0.007,-0.087l0.008,-0.087l0.009,-0.086l0.011,-0.086l0.011,-0.085l0.013,-0.086l0.014,-0.085l0.015,-0.085l0.016,-0.084l0.018,-0.084l0.018,-0.083l0.02,-0.083l0.021,-0.083l0.022,-0.083l0.023,-0.081l0.024,-0.082l0.025,-0.081l0.027,-0.081l0.027,-0.079l0.028,-0.08l0.03,-0.079l0.03,-0.078l0.032,-0.078l0.032,-0.078l0.036,-0.083l0.067,-0.146l0.074,-0.15l0.077,-0.147l0.081,-0.146l0.085,-0.142l0.088,-0.141l0.091,-0.138l0.095,-0.135l0.098,-0.133l0.102,-0.13l0.104,-0.128l0.107,-0.124l0.111,-0.123l0.113,-0.119l0.116,-0.116l0.119,-0.114l0.121,-0.111l0.124,-0.108l0.127,-0.105l0.129,-0.103l0.132,-0.099l0.134,-0.096l0.136,-0.093l0.139,-0.09l0.141,-0.088l0.143,-0.084l0.145,-0.08l0.147,-0.078l0.15,-0.074l0.151,-0.072l0.153,-0.067l0.155,-0.065l0.157,-0.061l0.158,-0.058l0.16,-0.054l0.162,-0.051l0.164,-0.048l0.165,-0.044l0.166,-0.04l0.168,-0.036l0.169,-0.033l0.171,-0.029l0.172,-0.026l0.173,-0.021l0.174,-0.018l0.175,-0.014l0.176,-0.01l0.177,-0.006l0.178,-0.002l0.178,0.002Zm-0.262,4.128l-0.084,0.003l-0.084,0.005l-0.082,0.006l-0.081,0.009l-0.08,0.01l-0.08,0.012l-0.079,0.013l-0.078,0.015l-0.077,0.017l-0.076,0.018l-0.075,0.02l-0.074,0.022l-0.073,0.023l-0.072,0.024l-0.072,0.026l-0.07,0.027l-0.069,0.029l-0.067,0.03l-0.067,0.032l-0.065,0.032l-0.065,0.034l-0.063,0.035l-0.061,0.036l-0.06,0.038l-0.06,0.038l-0.058,0.04l-0.056,0.04l-0.055,0.042l-0.053,0.042l-0.052,0.043l-0.051,0.044l-0.049,0.045l-0.048,0.045l-0.046,0.047l-0.045,0.047l-0.042,0.047l-0.042,0.049l-0.04,0.049l-0.038,0.049l-0.037,0.049l-0.035,0.051l-0.034,0.05l-0.032,0.051l-0.03,0.052l-0.029,0.051l-0.027,0.052l-0.026,0.052l-0.027,0.059l-0.008,0.02l-0.012,0.027l-0.01,0.026l-0.01,0.027l-0.01,0.026l-0.01,0.027l-0.009,0.027l-0.009,0.027l-0.008,0.027l-0.008,0.026l-0.008,0.028l-0.007,0.027l-0.007,0.027l-0.006,0.027l-0.006,0.028l-0.006,0.027l-0.006,0.028l-0.004,0.027l-0.005,0.028l-0.004,0.028l-0.004,0.028l-0.003,0.028l-0.003,0.029l-0.003,0.028l-0.002,0.028l-0.002,0.028l-0.002,0.029l-0.001,0.03l0,0.029l0,0.029l0,0.028l0,0.03l0.001,0.029l0.002,0.029l0.002,0.028l0.002,0.028l0.003,0.029l0.003,0.028l0.003,0.028l0.004,0.028l0.004,0.028l0.005,0.028l0.005,0.028l0.005,0.027l0.006,0.027l0.006,0.028l0.006,0.027l0.007,0.027l0.007,0.028l0.008,0.027l0.008,0.027l0.008,0.026l0.009,0.027l0.009,0.027l0.01,0.027l0.01,0.027l0.01,0.026l0.01,0.026l0.012,0.027l0.008,0.02l0.027,0.059l0.026,0.052l0.027,0.052l0.029,0.052l0.03,0.051l0.032,0.051l0.034,0.051l0.035,0.05l0.037,0.05l0.038,0.049l0.04,0.049l0.042,0.048l0.042,0.047l0.045,0.047l0.046,0.047l0.048,0.045l0.049,0.045l0.051,0.044l0.052,0.044l0.053,0.042l0.055,0.041l0.056,0.041l0.058,0.039l0.06,0.039l0.06,0.037l0.061,0.036l0.063,0.035l0.065,0.034l0.065,0.033l0.067,0.031l0.067,0.03l0.069,0.029l0.07,0.027l0.072,0.026l0.072,0.025l0.073,0.023l0.074,0.021l0.075,0.02l0.076,0.018l0.077,0.017l0.078,0.015l0.079,0.014l0.08,0.011l0.08,0.011l0.081,0.008l0.083,0.006l0.083,0.005l0.083,0.003l0.085,0.001l0.085,-0.001l0.083,-0.003l0.083,-0.005l0.083,-0.006l0.081,-0.008l0.081,-0.011l0.079,-0.011l0.079,-0.014l0.079,-0.015l0.076,-0.017l0.076,-0.018l0.076,-0.02l0.074,-0.022l0.072,-0.022l0.073,-0.025l0.071,-0.026l0.07,-0.027l0.069,-0.029l0.068,-0.03l0.066,-0.031l0.066,-0.033l0.064,-0.034l0.063,-0.035l0.062,-0.036l0.06,-0.037l0.059,-0.039l0.058,-0.039l0.056,-0.041l0.055,-0.041l0.054,-0.043l0.052,-0.043l0.05,-0.044l0.05,-0.045l0.047,-0.045l0.046,-0.047l0.045,-0.046l0.043,-0.048l0.041,-0.048l0.04,-0.049l0.038,-0.049l0.037,-0.05l0.035,-0.05l0.034,-0.051l0.032,-0.051l0.03,-0.052l0.029,-0.051l0.027,-0.051l0.026,-0.053l0.027,-0.059l0.009,-0.02l0.011,-0.026l0.01,-0.027l0.011,-0.027l0.01,-0.026l0.009,-0.026l0.009,-0.027l0.009,-0.028l0.008,-0.026l0.008,-0.027l0.008,-0.027l0.007,-0.028l0.007,-0.027l0.006,-0.026l0.007,-0.029l0.006,-0.027l0.005,-0.027l0.005,-0.028l0.004,-0.028l0.004,-0.028l0.004,-0.028l0.004,-0.028l0.003,-0.028l0.002,-0.028l0.003,-0.029l0.001,-0.029l0.002,-0.028l0.001,-0.029l0,-0.029l0.001,-0.029l-0.001,-0.03l0,-0.029l-0.001,-0.029l-0.002,-0.028l-0.001,-0.029l-0.003,-0.029l-0.002,-0.028l-0.003,-0.028l-0.004,-0.028l-0.004,-0.028l-0.004,-0.028l-0.004,-0.028l-0.005,-0.027l-0.005,-0.027l-0.006,-0.028l-0.007,-0.028l-0.006,-0.027l-0.007,-0.026l-0.007,-0.028l-0.008,-0.028l-0.008,-0.026l-0.008,-0.027l-0.009,-0.027l-0.009,-0.027l-0.009,-0.027l-0.01,-0.026l-0.011,-0.027l-0.01,-0.027l-0.011,-0.026l-0.009,-0.02l-0.027,-0.059l-0.026,-0.052l-0.027,-0.052l-0.029,-0.051l-0.03,-0.052l-0.032,-0.051l-0.034,-0.051l-0.035,-0.05l-0.037,-0.049l-0.038,-0.05l-0.04,-0.048l-0.041,-0.049l-0.043,-0.047l-0.045,-0.047l-0.046,-0.047l-0.047,-0.045l-0.05,-0.045l-0.05,-0.044l-0.052,-0.043l-0.054,-0.043l-0.055,-0.041l-0.056,-0.04l-0.058,-0.04l-0.059,-0.039l-0.06,-0.037l-0.062,-0.036l-0.063,-0.035l-0.064,-0.034l-0.066,-0.032l-0.066,-0.032l-0.068,-0.03l-0.069,-0.029l-0.07,-0.027l-0.071,-0.026l-0.073,-0.024l-0.072,-0.023l-0.074,-0.022l-0.075,-0.02l-0.077,-0.018l-0.077,-0.017l-0.078,-0.015l-0.079,-0.013l-0.079,-0.012l-0.081,-0.01l-0.081,-0.009l-0.082,-0.006l-0.084,-0.005l-0.083,-0.003l-0.085,-0.001l-0.084,0.001Z" fill="rgba(173,177,181,0.7)" stroke="rgba(173, 177, 181, 0.7)" stroke-width="2px"></path>
                <path class="uniq-key" transform="matrix(0.39999999999999997, 0, 0, 0.39999999999999997, 75, 72)" d="M9.025,5.185c0,3.699 0,7.398 0,11.097" fill="rgba(173,177,181,0.7)" stroke="rgba(173, 177, 181, 0.7)" stroke-width="2px"></path>
                <path class="uniq-key" transform="matrix(0.39999999999999997, 0, 0, 0.39999999999999997, 75, 72)" d="M7.263,16.899c0,-4.345 0,-8.69 0,-13.035" fill="rgba(173,177,181,0.7)" stroke="rgba(173, 177, 181, 0.7)" stroke-width="2px"></path>
                <path class="uniq-key" transform="matrix(0.39999999999999997, 0, 0, 0.39999999999999997, 75, 72)" d="M10.962,3.864c0,3.948 0,8.116 0,12.154" fill="rgba(173,177,181,0.7)" stroke="rgba(173, 177, 181, 0.7)" stroke-width="2px"></path>
                <path class="uniq-key" transform="matrix(0.39999999999999997, 0, 0, 0.39999999999999997, 75, 72)" d="M13.252,6.066c-0.117,0 -0.235,0 -0.352,0" fill="rgba(173,177,181,0.7)" stroke="rgba(173, 177, 181, 0.7)" stroke-width="2px"></path>
                <path class="uniq-key" transform="matrix(0.39999999999999997, 0, 0, 0.39999999999999997, 75, 72)" d="M13.428,9.853c-0.293,0 -0.587,0 -0.88,0" fill="rgba(173,177,181,0.7)" stroke="rgba(173, 177, 181, 0.7)" stroke-width="2px"></path>
                <path class="uniq-key" transform="matrix(0.39999999999999997, 0, 0, 0.39999999999999997, 75, 72)" d="M13.605,14.08c-0.5,0 -0.999,0 -1.498,0" fill="rgba(173,177,181,0.7)" stroke="rgba(173, 177, 181, 0.7)" stroke-width="2px"></path>
                <path class="uniq-key" transform="matrix(0.39999999999999997, 0, 0, 0.39999999999999997, 75, 72)" d="M8.937,1.926c0,0.44 0,0.881 0,1.321" fill="rgba(173,177,181,0.7)" stroke="rgba(173, 177, 181, 0.7)" stroke-width="2px"></path>
          
        </g>
        <g class="joint-table-row-group" onmousedown="QdbdJS.onRowMouseDown()" onmousemove="QdbdJS.onRowMouseMove()" onmouseup="QdbdJS.onRowMouseUp(17)">
          <rect x="0" y="88" class="joint-table-row" width="153" height="31" stroke="none"></rect>
          
          
          <text x="0" y="110" class="joint-field-text" id="v-888" pointer-events="none" fill="#333" font-size="12px">
            <tspan x="14" y="110" text-anchor="start" class="joint-field-name ">
              hash
            </tspan>
            <tspan x="139" y="110" text-anchor="end" class="joint-field-type" fill="#adb1b5">
              string
            </tspan>
          </text>
          
          
        <rect x="0" y="119" class="joint-table-row" width="153" height="6" stroke="none"></rect>
        
        </g>
          </g>
        </g></g><g id="j_59" model-id="d491a1a3-53e9-456e-b4f2-e57c525a789a" class="element basic newt joint-theme-default" magnet="false" fill="#ffffff" stroke="none" transform="translate(416,143)" font-family="Roboto,'Helvetica Neue', sans-serif"><g class="joint-table" onmousedown="QdbdJS.onTableMouseDown(this)" onmouseup="QdbdJS.onTableMouseUp(this)" id="v-890">
          <rect x="0" y="0" width="130" height="38" class="joint-table-title" onmousedown="QdbdJS.onRowMouseDown()" onmousemove="QdbdJS.onRowMouseMove()" onmouseup="QdbdJS.onRowMouseUp(19)" fill="#005aa0" stroke="#005aa0"></rect>
          <text x="14" y="24" text-anchor="start" class="joint-table-title-text" id="v-895" pointer-events="none" font-size="14px">work_types</text>
          <g class="joint-table-rows">
            
        <g class="joint-table-row-group" onmousedown="QdbdJS.onRowMouseDown()" onmousemove="QdbdJS.onRowMouseMove()" onmouseup="QdbdJS.onRowMouseUp(21)">
          <rect x="0" y="38" class="joint-table-row" width="130" height="25" stroke="none"></rect>
          
          
          <text x="0" y="60" class="joint-field-text" id="v-896" pointer-events="none" fill="#333" font-size="12px">
            <tspan x="14" y="60" text-anchor="start" class="joint-field-name pk" fill="#005aa0" font-weight="bold">
              id
            </tspan>
            <tspan x="116" y="60" text-anchor="end" class="joint-field-type" fill="#adb1b5">
              int
            </tspan>
          </text>
          <path class="pk-key" transform="matrix(0.7, 0, 0, 0.7, 79, 47)" d="M22.208,2.205l0.167,0.006l0.167,0.011l0.166,0.015l0.165,0.019l0.164,0.023l0.163,0.028l0.161,0.031l0.16,0.035l0.158,0.039l0.157,0.043l0.156,0.047l0.153,0.051l0.152,0.054l0.151,0.058l0.148,0.061l0.146,0.065l0.145,0.068l0.142,0.072l0.141,0.075l0.138,0.078l0.136,0.082l0.134,0.085l0.132,0.087l0.129,0.091l0.127,0.094l0.125,0.097l0.122,0.099l0.12,0.103l0.117,0.105l0.114,0.108l0.112,0.11l0.11,0.114l0.106,0.116l0.104,0.118l0.101,0.121l0.098,0.123l0.096,0.126l0.092,0.128l0.089,0.13l0.087,0.133l0.083,0.135l0.08,0.137l0.077,0.139l0.074,0.141l0.07,0.144l0.067,0.145l0.064,0.147l0.06,0.149l0.056,0.151l0.053,0.152l0.05,0.154l0.046,0.156l0.042,0.157l0.038,0.159l0.035,0.16l0.03,0.162l0.027,0.162l0.023,0.164l0.018,0.165l0.015,0.167l0.01,0.167l0.007,0.168l0.002,0.168l-0.002,0.169l-0.007,0.168l-0.01,0.167l-0.015,0.166l-0.018,0.166l-0.023,0.163l-0.027,0.163l-0.03,0.162l-0.035,0.16l-0.038,0.159l-0.042,0.157l-0.046,0.156l-0.05,0.154l-0.053,0.152l-0.056,0.151l-0.06,0.149l-0.064,0.147l-0.067,0.145l-0.07,0.143l-0.074,0.142l-0.077,0.139l-0.08,0.137l-0.083,0.135l-0.087,0.132l-0.089,0.131l-0.092,0.128l-0.096,0.125l-0.098,0.124l-0.101,0.121l-0.104,0.118l-0.106,0.116l-0.11,0.113l-0.112,0.111l-0.114,0.108l-0.117,0.105l-0.12,0.103l-0.122,0.099l-0.125,0.097l-0.127,0.094l-0.129,0.09l-0.132,0.088l-0.134,0.085l-0.136,0.081l-0.138,0.078l-0.141,0.076l-0.142,0.071l-0.145,0.069l-0.146,0.064l-0.148,0.062l-0.151,0.058l-0.152,0.054l-0.153,0.05l-0.156,0.047l-0.157,0.043l-0.158,0.039l-0.16,0.036l-0.161,0.031l-0.163,0.027l-0.164,0.024l-0.165,0.019l-0.166,0.015l-0.167,0.01l-0.167,0.007l-0.169,0.002l-0.168,-0.002l-0.168,-0.007l-0.167,-0.01l-0.166,-0.015l-0.165,-0.019l-0.164,-0.024l-0.163,-0.027l-0.161,-0.031l-0.16,-0.036l-0.158,-0.039l-0.157,-0.043l-0.156,-0.047l-0.153,-0.05l-0.152,-0.054l-0.15,-0.058l-0.149,-0.062l-0.146,-0.064l-0.145,-0.069l-0.142,-0.071l-0.141,-0.076l-0.138,-0.078l-0.136,-0.081l-0.134,-0.085l-0.132,-0.088l-0.129,-0.09l-0.127,-0.094l-0.125,-0.097l-0.122,-0.099l-0.12,-0.103l-0.117,-0.105l-0.114,-0.108l-0.112,-0.111l-0.11,-0.113l-0.106,-0.116l-0.104,-0.118l-0.101,-0.121l-0.098,-0.123l-0.096,-0.126l-0.092,-0.128l-0.089,-0.131l-0.087,-0.132l-0.083,-0.135l-0.08,-0.137l-0.077,-0.139l-0.073,-0.142l-0.071,-0.143l-0.067,-0.145l-0.063,-0.147l-0.061,-0.149l-0.056,-0.151l-0.053,-0.152l-0.05,-0.154l-0.046,-0.156l-0.042,-0.157l-0.038,-0.159l-0.035,-0.16l-0.03,-0.162l-0.027,-0.163l-0.023,-0.164l-0.018,-0.165l-0.015,-0.166l-0.01,-0.167l-0.007,-0.168l-0.002,-0.169l0.002,-0.168l0.007,-0.168l0.01,-0.167l0.015,-0.167l0.018,-0.165l0.023,-0.164l0.027,-0.162l0.03,-0.162l0.035,-0.16l0.038,-0.159l0.042,-0.157l0.046,-0.156l0.05,-0.154l0.053,-0.152l0.056,-0.151l0.061,-0.149l0.063,-0.147l0.067,-0.145l0.071,-0.144l0.073,-0.141l0.077,-0.139l0.08,-0.137l0.083,-0.135l0.087,-0.133l0.089,-0.13l0.092,-0.128l0.096,-0.126l0.098,-0.123l0.101,-0.121l0.104,-0.118l0.106,-0.116l0.11,-0.114l0.112,-0.11l0.114,-0.108l0.117,-0.105l0.12,-0.103l0.122,-0.099l0.125,-0.097l0.127,-0.094l0.129,-0.091l0.132,-0.087l0.134,-0.085l0.136,-0.081l0.138,-0.079l0.141,-0.075l0.142,-0.072l0.145,-0.068l0.146,-0.065l0.149,-0.061l0.15,-0.058l0.152,-0.054l0.153,-0.051l0.156,-0.047l0.157,-0.043l0.158,-0.039l0.16,-0.035l0.161,-0.031l0.163,-0.028l0.164,-0.023l0.165,-0.019l0.166,-0.015l0.167,-0.011l0.167,-0.006l0.169,-0.002l0.169,0.002Zm-0.232,4.128l-0.062,0.002l-0.061,0.004l-0.061,0.006l-0.06,0.007l-0.059,0.008l-0.059,0.01l-0.059,0.011l-0.058,0.013l-0.057,0.014l-0.057,0.016l-0.056,0.017l-0.055,0.018l-0.056,0.02l-0.054,0.021l-0.054,0.022l-0.053,0.024l-0.053,0.025l-0.052,0.026l-0.052,0.027l-0.05,0.029l-0.051,0.03l-0.049,0.031l-0.049,0.033l-0.048,0.033l-0.047,0.035l-0.046,0.036l-0.046,0.037l-0.044,0.039l-0.044,0.039l-0.043,0.04l-0.042,0.042l-0.041,0.042l-0.04,0.044l-0.039,0.044l-0.038,0.046l-0.037,0.046l-0.036,0.048l-0.035,0.048l-0.033,0.049l-0.033,0.05l-0.031,0.05l-0.03,0.052l-0.029,0.052l-0.028,0.053l-0.026,0.054l-0.025,0.054l-0.024,0.055l-0.023,0.056l-0.021,0.056l-0.02,0.057l-0.018,0.058l-0.017,0.059l-0.016,0.059l-0.014,0.059l-0.013,0.06l-0.012,0.061l-0.01,0.062l-0.009,0.062l-0.007,0.062l-0.005,0.064l-0.004,0.063l-0.003,0.065l0,0.065l0,0.066l0.003,0.064l0.004,0.064l0.005,0.063l0.007,0.063l0.009,0.062l0.01,0.062l0.012,0.06l0.013,0.061l0.014,0.059l0.016,0.059l0.017,0.058l0.018,0.058l0.02,0.057l0.021,0.057l0.023,0.055l0.024,0.056l0.025,0.054l0.026,0.054l0.028,0.053l0.029,0.052l0.03,0.051l0.031,0.051l0.033,0.05l0.033,0.049l0.035,0.048l0.036,0.047l0.037,0.047l0.038,0.045l0.039,0.045l0.04,0.043l0.041,0.043l0.042,0.041l0.043,0.041l0.044,0.039l0.044,0.038l0.046,0.037l0.046,0.036l0.047,0.035l0.048,0.034l0.049,0.032l0.049,0.032l0.051,0.03l0.05,0.028l0.052,0.028l0.052,0.026l0.053,0.025l0.053,0.024l0.054,0.022l0.054,0.021l0.056,0.02l0.055,0.018l0.056,0.017l0.057,0.015l0.057,0.015l0.058,0.012l0.059,0.012l0.059,0.01l0.059,0.008l0.06,0.007l0.061,0.005l0.061,0.004l0.062,0.003l0.063,0.001l0.063,-0.001l0.062,-0.003l0.061,-0.004l0.061,-0.005l0.06,-0.007l0.059,-0.008l0.059,-0.01l0.059,-0.012l0.058,-0.012l0.057,-0.015l0.057,-0.015l0.056,-0.017l0.056,-0.018l0.055,-0.02l0.054,-0.021l0.054,-0.022l0.053,-0.024l0.053,-0.025l0.052,-0.026l0.052,-0.028l0.051,-0.028l0.05,-0.031l0.049,-0.031l0.049,-0.032l0.048,-0.034l0.047,-0.035l0.046,-0.036l0.046,-0.037l0.045,-0.038l0.043,-0.039l0.043,-0.041l0.042,-0.041l0.041,-0.043l0.04,-0.043l0.039,-0.045l0.038,-0.045l0.037,-0.046l0.036,-0.048l0.035,-0.048l0.033,-0.049l0.033,-0.05l0.031,-0.05l0.03,-0.052l0.029,-0.052l0.028,-0.053l0.026,-0.054l0.025,-0.054l0.024,-0.055l0.023,-0.056l0.021,-0.057l0.02,-0.057l0.018,-0.058l0.017,-0.058l0.016,-0.059l0.014,-0.059l0.013,-0.061l0.012,-0.06l0.01,-0.062l0.009,-0.062l0.007,-0.063l0.005,-0.063l0.004,-0.064l0.003,-0.064l0.001,-0.066l-0.001,-0.065l-0.003,-0.064l-0.004,-0.064l-0.005,-0.064l-0.007,-0.062l-0.009,-0.062l-0.01,-0.062l-0.012,-0.061l-0.013,-0.06l-0.014,-0.059l-0.016,-0.059l-0.017,-0.059l-0.018,-0.058l-0.02,-0.057l-0.021,-0.056l-0.023,-0.056l-0.024,-0.055l-0.025,-0.054l-0.026,-0.054l-0.028,-0.053l-0.029,-0.052l-0.03,-0.052l-0.031,-0.05l-0.033,-0.05l-0.033,-0.049l-0.035,-0.048l-0.036,-0.048l-0.037,-0.046l-0.038,-0.046l-0.039,-0.044l-0.04,-0.044l-0.041,-0.042l-0.042,-0.042l-0.043,-0.04l-0.043,-0.039l-0.045,-0.039l-0.046,-0.037l-0.046,-0.036l-0.047,-0.035l-0.048,-0.033l-0.049,-0.033l-0.049,-0.031l-0.05,-0.03l-0.051,-0.029l-0.052,-0.027l-0.052,-0.026l-0.053,-0.025l-0.053,-0.024l-0.054,-0.022l-0.054,-0.021l-0.055,-0.02l-0.056,-0.018l-0.056,-0.017l-0.057,-0.016l-0.057,-0.014l-0.058,-0.013l-0.059,-0.011l-0.059,-0.01l-0.059,-0.008l-0.06,-0.007l-0.061,-0.006l-0.061,-0.004l-0.062,-0.002l-0.063,-0.001l-0.063,0.001Z" fill="rgba(173,177,181,0.7)"></path>
                <rect class="pk-key" x="80" y="51.5" width="10.2" height="3" fill="rgba(173,177,181,0.7)"></rect>
                <rect class="pk-key" x="81.2" y="54.5" width="2" height="3" fill="rgba(173,177,181,0.7)"></rect>
                <rect class="pk-key" x="85" y="54.5" width="2" height="3" fill="rgba(173,177,181,0.7)"></rect>
          
        </g>
        <g class="joint-table-row-group" onmousedown="QdbdJS.onRowMouseDown()" onmousemove="QdbdJS.onRowMouseMove()" onmouseup="QdbdJS.onRowMouseUp(22)">
          <rect x="0" y="63" class="joint-table-row" width="130" height="31" stroke="none"></rect>
          
          
          <text x="0" y="85" class="joint-field-text" id="v-897" pointer-events="none" fill="#333" font-size="12px">
            <tspan x="14" y="85" text-anchor="start" class="joint-field-name ">
              title
            </tspan>
            <tspan x="116" y="85" text-anchor="end" class="joint-field-type" fill="#adb1b5">
              string
            </tspan>
          </text>
          
          
        <rect x="0" y="94" class="joint-table-row" width="130" height="6" stroke="none"></rect>
        
        </g>
          </g>
        </g></g><g id="j_60" model-id="049a0e5a-2718-4be1-87d7-34f8cea98f8c" class="element basic newt joint-theme-default" magnet="false" fill="#ffffff" stroke="none" transform="translate(122,305)" font-family="Roboto,'Helvetica Neue', sans-serif"><g class="joint-table" onmousedown="QdbdJS.onTableMouseDown(this)" onmouseup="QdbdJS.onTableMouseUp(this)" id="v-899">
          <rect x="0" y="0" width="162" height="38" class="joint-table-title" onmousedown="QdbdJS.onRowMouseDown()" onmousemove="QdbdJS.onRowMouseMove()" onmouseup="QdbdJS.onRowMouseUp(24)" fill="#005aa0" stroke="#005aa0"></rect>
          <text x="14" y="24" text-anchor="start" class="joint-table-title-text" id="v-916" pointer-events="none" font-size="14px">talents</text>
          <g class="joint-table-rows">
            
        <g class="joint-table-row-group" onmousedown="QdbdJS.onRowMouseDown()" onmousemove="QdbdJS.onRowMouseMove()" onmouseup="QdbdJS.onRowMouseUp(26)">
          <rect x="0" y="38" class="joint-table-row" width="162" height="25" stroke="none"></rect>
          
          
          <text x="0" y="60" class="joint-field-text" id="v-917" pointer-events="none" fill="#333" font-size="12px">
            <tspan x="14" y="60" text-anchor="start" class="joint-field-name pk" fill="#005aa0" font-weight="bold">
              id
            </tspan>
            <tspan x="148" y="60" text-anchor="end" class="joint-field-type" fill="#adb1b5">
              int
            </tspan>
          </text>
          <path class="pk-key" transform="matrix(0.7, 0, 0, 0.7, 111, 47)" d="M22.208,2.205l0.167,0.006l0.167,0.011l0.166,0.015l0.165,0.019l0.164,0.023l0.163,0.028l0.161,0.031l0.16,0.035l0.158,0.039l0.157,0.043l0.156,0.047l0.153,0.051l0.152,0.054l0.151,0.058l0.148,0.061l0.146,0.065l0.145,0.068l0.142,0.072l0.141,0.075l0.138,0.078l0.136,0.082l0.134,0.085l0.132,0.087l0.129,0.091l0.127,0.094l0.125,0.097l0.122,0.099l0.12,0.103l0.117,0.105l0.114,0.108l0.112,0.11l0.11,0.114l0.106,0.116l0.104,0.118l0.101,0.121l0.098,0.123l0.096,0.126l0.092,0.128l0.089,0.13l0.087,0.133l0.083,0.135l0.08,0.137l0.077,0.139l0.074,0.141l0.07,0.144l0.067,0.145l0.064,0.147l0.06,0.149l0.056,0.151l0.053,0.152l0.05,0.154l0.046,0.156l0.042,0.157l0.038,0.159l0.035,0.16l0.03,0.162l0.027,0.162l0.023,0.164l0.018,0.165l0.015,0.167l0.01,0.167l0.007,0.168l0.002,0.168l-0.002,0.169l-0.007,0.168l-0.01,0.167l-0.015,0.166l-0.018,0.166l-0.023,0.163l-0.027,0.163l-0.03,0.162l-0.035,0.16l-0.038,0.159l-0.042,0.157l-0.046,0.156l-0.05,0.154l-0.053,0.152l-0.056,0.151l-0.06,0.149l-0.064,0.147l-0.067,0.145l-0.07,0.143l-0.074,0.142l-0.077,0.139l-0.08,0.137l-0.083,0.135l-0.087,0.132l-0.089,0.131l-0.092,0.128l-0.096,0.125l-0.098,0.124l-0.101,0.121l-0.104,0.118l-0.106,0.116l-0.11,0.113l-0.112,0.111l-0.114,0.108l-0.117,0.105l-0.12,0.103l-0.122,0.099l-0.125,0.097l-0.127,0.094l-0.129,0.09l-0.132,0.088l-0.134,0.085l-0.136,0.081l-0.138,0.078l-0.141,0.076l-0.142,0.071l-0.145,0.069l-0.146,0.064l-0.148,0.062l-0.151,0.058l-0.152,0.054l-0.153,0.05l-0.156,0.047l-0.157,0.043l-0.158,0.039l-0.16,0.036l-0.161,0.031l-0.163,0.027l-0.164,0.024l-0.165,0.019l-0.166,0.015l-0.167,0.01l-0.167,0.007l-0.169,0.002l-0.168,-0.002l-0.168,-0.007l-0.167,-0.01l-0.166,-0.015l-0.165,-0.019l-0.164,-0.024l-0.163,-0.027l-0.161,-0.031l-0.16,-0.036l-0.158,-0.039l-0.157,-0.043l-0.156,-0.047l-0.153,-0.05l-0.152,-0.054l-0.15,-0.058l-0.149,-0.062l-0.146,-0.064l-0.145,-0.069l-0.142,-0.071l-0.141,-0.076l-0.138,-0.078l-0.136,-0.081l-0.134,-0.085l-0.132,-0.088l-0.129,-0.09l-0.127,-0.094l-0.125,-0.097l-0.122,-0.099l-0.12,-0.103l-0.117,-0.105l-0.114,-0.108l-0.112,-0.111l-0.11,-0.113l-0.106,-0.116l-0.104,-0.118l-0.101,-0.121l-0.098,-0.123l-0.096,-0.126l-0.092,-0.128l-0.089,-0.131l-0.087,-0.132l-0.083,-0.135l-0.08,-0.137l-0.077,-0.139l-0.073,-0.142l-0.071,-0.143l-0.067,-0.145l-0.063,-0.147l-0.061,-0.149l-0.056,-0.151l-0.053,-0.152l-0.05,-0.154l-0.046,-0.156l-0.042,-0.157l-0.038,-0.159l-0.035,-0.16l-0.03,-0.162l-0.027,-0.163l-0.023,-0.164l-0.018,-0.165l-0.015,-0.166l-0.01,-0.167l-0.007,-0.168l-0.002,-0.169l0.002,-0.168l0.007,-0.168l0.01,-0.167l0.015,-0.167l0.018,-0.165l0.023,-0.164l0.027,-0.162l0.03,-0.162l0.035,-0.16l0.038,-0.159l0.042,-0.157l0.046,-0.156l0.05,-0.154l0.053,-0.152l0.056,-0.151l0.061,-0.149l0.063,-0.147l0.067,-0.145l0.071,-0.144l0.073,-0.141l0.077,-0.139l0.08,-0.137l0.083,-0.135l0.087,-0.133l0.089,-0.13l0.092,-0.128l0.096,-0.126l0.098,-0.123l0.101,-0.121l0.104,-0.118l0.106,-0.116l0.11,-0.114l0.112,-0.11l0.114,-0.108l0.117,-0.105l0.12,-0.103l0.122,-0.099l0.125,-0.097l0.127,-0.094l0.129,-0.091l0.132,-0.087l0.134,-0.085l0.136,-0.081l0.138,-0.079l0.141,-0.075l0.142,-0.072l0.145,-0.068l0.146,-0.065l0.149,-0.061l0.15,-0.058l0.152,-0.054l0.153,-0.051l0.156,-0.047l0.157,-0.043l0.158,-0.039l0.16,-0.035l0.161,-0.031l0.163,-0.028l0.164,-0.023l0.165,-0.019l0.166,-0.015l0.167,-0.011l0.167,-0.006l0.169,-0.002l0.169,0.002Zm-0.232,4.128l-0.062,0.002l-0.061,0.004l-0.061,0.006l-0.06,0.007l-0.059,0.008l-0.059,0.01l-0.059,0.011l-0.058,0.013l-0.057,0.014l-0.057,0.016l-0.056,0.017l-0.055,0.018l-0.056,0.02l-0.054,0.021l-0.054,0.022l-0.053,0.024l-0.053,0.025l-0.052,0.026l-0.052,0.027l-0.05,0.029l-0.051,0.03l-0.049,0.031l-0.049,0.033l-0.048,0.033l-0.047,0.035l-0.046,0.036l-0.046,0.037l-0.044,0.039l-0.044,0.039l-0.043,0.04l-0.042,0.042l-0.041,0.042l-0.04,0.044l-0.039,0.044l-0.038,0.046l-0.037,0.046l-0.036,0.048l-0.035,0.048l-0.033,0.049l-0.033,0.05l-0.031,0.05l-0.03,0.052l-0.029,0.052l-0.028,0.053l-0.026,0.054l-0.025,0.054l-0.024,0.055l-0.023,0.056l-0.021,0.056l-0.02,0.057l-0.018,0.058l-0.017,0.059l-0.016,0.059l-0.014,0.059l-0.013,0.06l-0.012,0.061l-0.01,0.062l-0.009,0.062l-0.007,0.062l-0.005,0.064l-0.004,0.063l-0.003,0.065l0,0.065l0,0.066l0.003,0.064l0.004,0.064l0.005,0.063l0.007,0.063l0.009,0.062l0.01,0.062l0.012,0.06l0.013,0.061l0.014,0.059l0.016,0.059l0.017,0.058l0.018,0.058l0.02,0.057l0.021,0.057l0.023,0.055l0.024,0.056l0.025,0.054l0.026,0.054l0.028,0.053l0.029,0.052l0.03,0.051l0.031,0.051l0.033,0.05l0.033,0.049l0.035,0.048l0.036,0.047l0.037,0.047l0.038,0.045l0.039,0.045l0.04,0.043l0.041,0.043l0.042,0.041l0.043,0.041l0.044,0.039l0.044,0.038l0.046,0.037l0.046,0.036l0.047,0.035l0.048,0.034l0.049,0.032l0.049,0.032l0.051,0.03l0.05,0.028l0.052,0.028l0.052,0.026l0.053,0.025l0.053,0.024l0.054,0.022l0.054,0.021l0.056,0.02l0.055,0.018l0.056,0.017l0.057,0.015l0.057,0.015l0.058,0.012l0.059,0.012l0.059,0.01l0.059,0.008l0.06,0.007l0.061,0.005l0.061,0.004l0.062,0.003l0.063,0.001l0.063,-0.001l0.062,-0.003l0.061,-0.004l0.061,-0.005l0.06,-0.007l0.059,-0.008l0.059,-0.01l0.059,-0.012l0.058,-0.012l0.057,-0.015l0.057,-0.015l0.056,-0.017l0.056,-0.018l0.055,-0.02l0.054,-0.021l0.054,-0.022l0.053,-0.024l0.053,-0.025l0.052,-0.026l0.052,-0.028l0.051,-0.028l0.05,-0.031l0.049,-0.031l0.049,-0.032l0.048,-0.034l0.047,-0.035l0.046,-0.036l0.046,-0.037l0.045,-0.038l0.043,-0.039l0.043,-0.041l0.042,-0.041l0.041,-0.043l0.04,-0.043l0.039,-0.045l0.038,-0.045l0.037,-0.046l0.036,-0.048l0.035,-0.048l0.033,-0.049l0.033,-0.05l0.031,-0.05l0.03,-0.052l0.029,-0.052l0.028,-0.053l0.026,-0.054l0.025,-0.054l0.024,-0.055l0.023,-0.056l0.021,-0.057l0.02,-0.057l0.018,-0.058l0.017,-0.058l0.016,-0.059l0.014,-0.059l0.013,-0.061l0.012,-0.06l0.01,-0.062l0.009,-0.062l0.007,-0.063l0.005,-0.063l0.004,-0.064l0.003,-0.064l0.001,-0.066l-0.001,-0.065l-0.003,-0.064l-0.004,-0.064l-0.005,-0.064l-0.007,-0.062l-0.009,-0.062l-0.01,-0.062l-0.012,-0.061l-0.013,-0.06l-0.014,-0.059l-0.016,-0.059l-0.017,-0.059l-0.018,-0.058l-0.02,-0.057l-0.021,-0.056l-0.023,-0.056l-0.024,-0.055l-0.025,-0.054l-0.026,-0.054l-0.028,-0.053l-0.029,-0.052l-0.03,-0.052l-0.031,-0.05l-0.033,-0.05l-0.033,-0.049l-0.035,-0.048l-0.036,-0.048l-0.037,-0.046l-0.038,-0.046l-0.039,-0.044l-0.04,-0.044l-0.041,-0.042l-0.042,-0.042l-0.043,-0.04l-0.043,-0.039l-0.045,-0.039l-0.046,-0.037l-0.046,-0.036l-0.047,-0.035l-0.048,-0.033l-0.049,-0.033l-0.049,-0.031l-0.05,-0.03l-0.051,-0.029l-0.052,-0.027l-0.052,-0.026l-0.053,-0.025l-0.053,-0.024l-0.054,-0.022l-0.054,-0.021l-0.055,-0.02l-0.056,-0.018l-0.056,-0.017l-0.057,-0.016l-0.057,-0.014l-0.058,-0.013l-0.059,-0.011l-0.059,-0.01l-0.059,-0.008l-0.06,-0.007l-0.061,-0.006l-0.061,-0.004l-0.062,-0.002l-0.063,-0.001l-0.063,0.001Z" fill="rgba(173,177,181,0.7)"></path>
                <rect class="pk-key" x="112" y="51.5" width="10.2" height="3" fill="rgba(173,177,181,0.7)"></rect>
                <rect class="pk-key" x="113.2" y="54.5" width="2" height="3" fill="rgba(173,177,181,0.7)"></rect>
                <rect class="pk-key" x="117" y="54.5" width="2" height="3" fill="rgba(173,177,181,0.7)"></rect>
          
        </g>
        <g class="joint-table-row-group" onmousedown="QdbdJS.onRowMouseDown()" onmousemove="QdbdJS.onRowMouseMove()" onmouseup="QdbdJS.onRowMouseUp(27)">
          <rect x="0" y="63" class="joint-table-row" width="162" height="25" stroke="none"></rect>
          
          
          <text x="0" y="85" class="joint-field-text" id="v-918" pointer-events="none" fill="#333" font-size="12px">
            <tspan x="14" y="85" text-anchor="start" class="joint-field-name fk" fill="#222" font-weight="bold">
              user_id
            </tspan>
            <tspan x="148" y="85" text-anchor="end" class="joint-field-type" fill="#adb1b5">
              int
            </tspan>
          </text>
          
          
        </g>
        <g class="joint-table-row-group" onmousedown="QdbdJS.onRowMouseDown()" onmousemove="QdbdJS.onRowMouseMove()" onmouseup="QdbdJS.onRowMouseUp(28)">
          <rect x="0" y="88" class="joint-table-row" width="162" height="25" stroke="none"></rect>
          
          
          <text x="0" y="110" class="joint-field-text" id="v-919" pointer-events="none" fill="#333" font-size="12px">
            <tspan x="14" y="110" text-anchor="start" class="joint-field-name ">
              title
            </tspan>
            <tspan x="148" y="110" text-anchor="end" class="joint-field-type" fill="#adb1b5">
              string
            </tspan>
          </text>
          
          
        </g>
        <g class="joint-table-row-group" onmousedown="QdbdJS.onRowMouseDown()" onmousemove="QdbdJS.onRowMouseMove()" onmouseup="QdbdJS.onRowMouseUp(29)">
          <rect x="0" y="113" class="joint-table-row" width="162" height="25" stroke="none"></rect>
          
          
          <text x="0" y="135" class="joint-field-text" id="v-920" pointer-events="none" fill="#333" font-size="12px">
            <tspan x="14" y="135" text-anchor="start" class="joint-field-name ">
              description
            </tspan>
            <tspan x="148" y="135" text-anchor="end" class="joint-field-type" fill="#adb1b5">
              string
            </tspan>
          </text>
          
          
        </g>
        <g class="joint-table-row-group" onmousedown="QdbdJS.onRowMouseDown()" onmousemove="QdbdJS.onRowMouseMove()" onmouseup="QdbdJS.onRowMouseUp(30)">
          <rect x="0" y="138" class="joint-table-row" width="162" height="25" stroke="none"></rect>
          
          
          <text x="0" y="160" class="joint-field-text" id="v-921" pointer-events="none" fill="#333" font-size="12px">
            <tspan x="14" y="160" text-anchor="start" class="joint-field-name ">
              location
            </tspan>
            <tspan x="148" y="160" text-anchor="end" class="joint-field-type" fill="#adb1b5">
              string
            </tspan>
          </text>
          
          
        </g>
        <g class="joint-table-row-group" onmousedown="QdbdJS.onRowMouseDown()" onmousemove="QdbdJS.onRowMouseMove()" onmouseup="QdbdJS.onRowMouseUp(31)">
          <rect x="0" y="163" class="joint-table-row" width="162" height="25" stroke="none"></rect>
          
          
          <text x="0" y="185" class="joint-field-text" id="v-922" pointer-events="none" fill="#333" font-size="12px">
            <tspan x="14" y="185" text-anchor="start" class="joint-field-name ">
              listedDate
            </tspan>
            <tspan x="148" y="185" text-anchor="end" class="joint-field-type" fill="#adb1b5">
              date
            </tspan>
          </text>
          
          
        </g>
        <g class="joint-table-row-group" onmousedown="QdbdJS.onRowMouseDown()" onmousemove="QdbdJS.onRowMouseMove()" onmouseup="QdbdJS.onRowMouseUp(32)">
          <rect x="0" y="188" class="joint-table-row" width="162" height="25" stroke="none"></rect>
          
          
          <text x="0" y="210" class="joint-field-text" id="v-923" pointer-events="none" fill="#333" font-size="12px">
            <tspan x="14" y="210" text-anchor="start" class="joint-field-name ">
              dates
            </tspan>
            <tspan x="148" y="210" text-anchor="end" class="joint-field-type" fill="#adb1b5">
              string
            </tspan>
          </text>
          
          
        </g>
        <g class="joint-table-row-group" onmousedown="QdbdJS.onRowMouseDown()" onmousemove="QdbdJS.onRowMouseMove()" onmouseup="QdbdJS.onRowMouseUp(33)">
          <rect x="0" y="213" class="joint-table-row" width="162" height="31" stroke="none"></rect>
          
          
          <text x="0" y="235" class="joint-field-text" id="v-924" pointer-events="none" fill="#333" font-size="12px">
            <tspan x="14" y="235" text-anchor="start" class="joint-field-name ">
              payRate
            </tspan>
            <tspan x="148" y="235" text-anchor="end" class="joint-field-type" fill="#adb1b5">
              string
            </tspan>
          </text>
          
          
        <rect x="0" y="244" class="joint-table-row" width="162" height="6" stroke="none"></rect>
        
        </g>
          </g>
        </g></g><g id="j_61" model-id="48146373-3818-45e7-af3d-bc2aa31c4cfa" class="element basic newt joint-theme-default" magnet="false" fill="#ffffff" stroke="none" transform="translate(691,311)" font-family="Roboto,'Helvetica Neue', sans-serif"><g class="joint-table" onmousedown="QdbdJS.onTableMouseDown(this)" onmouseup="QdbdJS.onTableMouseUp(this)" id="v-926">
          <rect x="0" y="0" width="162" height="38" class="joint-table-title" onmousedown="QdbdJS.onRowMouseDown()" onmousemove="QdbdJS.onRowMouseMove()" onmouseup="QdbdJS.onRowMouseUp(36)" fill="#005aa0" stroke="#005aa0"></rect>
          <text x="14" y="24" text-anchor="start" class="joint-table-title-text" id="v-943" pointer-events="none" font-size="14px">jobs</text>
          <g class="joint-table-rows">
            
        <g class="joint-table-row-group" onmousedown="QdbdJS.onRowMouseDown()" onmousemove="QdbdJS.onRowMouseMove()" onmouseup="QdbdJS.onRowMouseUp(38)">
          <rect x="0" y="38" class="joint-table-row" width="162" height="25" stroke="none"></rect>
          
          
          <text x="0" y="60" class="joint-field-text" id="v-944" pointer-events="none" fill="#333" font-size="12px">
            <tspan x="14" y="60" text-anchor="start" class="joint-field-name pk" fill="#005aa0" font-weight="bold">
              id
            </tspan>
            <tspan x="148" y="60" text-anchor="end" class="joint-field-type" fill="#adb1b5">
              int
            </tspan>
          </text>
          <path class="pk-key" transform="matrix(0.7, 0, 0, 0.7, 111, 47)" d="M22.208,2.205l0.167,0.006l0.167,0.011l0.166,0.015l0.165,0.019l0.164,0.023l0.163,0.028l0.161,0.031l0.16,0.035l0.158,0.039l0.157,0.043l0.156,0.047l0.153,0.051l0.152,0.054l0.151,0.058l0.148,0.061l0.146,0.065l0.145,0.068l0.142,0.072l0.141,0.075l0.138,0.078l0.136,0.082l0.134,0.085l0.132,0.087l0.129,0.091l0.127,0.094l0.125,0.097l0.122,0.099l0.12,0.103l0.117,0.105l0.114,0.108l0.112,0.11l0.11,0.114l0.106,0.116l0.104,0.118l0.101,0.121l0.098,0.123l0.096,0.126l0.092,0.128l0.089,0.13l0.087,0.133l0.083,0.135l0.08,0.137l0.077,0.139l0.074,0.141l0.07,0.144l0.067,0.145l0.064,0.147l0.06,0.149l0.056,0.151l0.053,0.152l0.05,0.154l0.046,0.156l0.042,0.157l0.038,0.159l0.035,0.16l0.03,0.162l0.027,0.162l0.023,0.164l0.018,0.165l0.015,0.167l0.01,0.167l0.007,0.168l0.002,0.168l-0.002,0.169l-0.007,0.168l-0.01,0.167l-0.015,0.166l-0.018,0.166l-0.023,0.163l-0.027,0.163l-0.03,0.162l-0.035,0.16l-0.038,0.159l-0.042,0.157l-0.046,0.156l-0.05,0.154l-0.053,0.152l-0.056,0.151l-0.06,0.149l-0.064,0.147l-0.067,0.145l-0.07,0.143l-0.074,0.142l-0.077,0.139l-0.08,0.137l-0.083,0.135l-0.087,0.132l-0.089,0.131l-0.092,0.128l-0.096,0.125l-0.098,0.124l-0.101,0.121l-0.104,0.118l-0.106,0.116l-0.11,0.113l-0.112,0.111l-0.114,0.108l-0.117,0.105l-0.12,0.103l-0.122,0.099l-0.125,0.097l-0.127,0.094l-0.129,0.09l-0.132,0.088l-0.134,0.085l-0.136,0.081l-0.138,0.078l-0.141,0.076l-0.142,0.071l-0.145,0.069l-0.146,0.064l-0.148,0.062l-0.151,0.058l-0.152,0.054l-0.153,0.05l-0.156,0.047l-0.157,0.043l-0.158,0.039l-0.16,0.036l-0.161,0.031l-0.163,0.027l-0.164,0.024l-0.165,0.019l-0.166,0.015l-0.167,0.01l-0.167,0.007l-0.169,0.002l-0.168,-0.002l-0.168,-0.007l-0.167,-0.01l-0.166,-0.015l-0.165,-0.019l-0.164,-0.024l-0.163,-0.027l-0.161,-0.031l-0.16,-0.036l-0.158,-0.039l-0.157,-0.043l-0.156,-0.047l-0.153,-0.05l-0.152,-0.054l-0.15,-0.058l-0.149,-0.062l-0.146,-0.064l-0.145,-0.069l-0.142,-0.071l-0.141,-0.076l-0.138,-0.078l-0.136,-0.081l-0.134,-0.085l-0.132,-0.088l-0.129,-0.09l-0.127,-0.094l-0.125,-0.097l-0.122,-0.099l-0.12,-0.103l-0.117,-0.105l-0.114,-0.108l-0.112,-0.111l-0.11,-0.113l-0.106,-0.116l-0.104,-0.118l-0.101,-0.121l-0.098,-0.123l-0.096,-0.126l-0.092,-0.128l-0.089,-0.131l-0.087,-0.132l-0.083,-0.135l-0.08,-0.137l-0.077,-0.139l-0.073,-0.142l-0.071,-0.143l-0.067,-0.145l-0.063,-0.147l-0.061,-0.149l-0.056,-0.151l-0.053,-0.152l-0.05,-0.154l-0.046,-0.156l-0.042,-0.157l-0.038,-0.159l-0.035,-0.16l-0.03,-0.162l-0.027,-0.163l-0.023,-0.164l-0.018,-0.165l-0.015,-0.166l-0.01,-0.167l-0.007,-0.168l-0.002,-0.169l0.002,-0.168l0.007,-0.168l0.01,-0.167l0.015,-0.167l0.018,-0.165l0.023,-0.164l0.027,-0.162l0.03,-0.162l0.035,-0.16l0.038,-0.159l0.042,-0.157l0.046,-0.156l0.05,-0.154l0.053,-0.152l0.056,-0.151l0.061,-0.149l0.063,-0.147l0.067,-0.145l0.071,-0.144l0.073,-0.141l0.077,-0.139l0.08,-0.137l0.083,-0.135l0.087,-0.133l0.089,-0.13l0.092,-0.128l0.096,-0.126l0.098,-0.123l0.101,-0.121l0.104,-0.118l0.106,-0.116l0.11,-0.114l0.112,-0.11l0.114,-0.108l0.117,-0.105l0.12,-0.103l0.122,-0.099l0.125,-0.097l0.127,-0.094l0.129,-0.091l0.132,-0.087l0.134,-0.085l0.136,-0.081l0.138,-0.079l0.141,-0.075l0.142,-0.072l0.145,-0.068l0.146,-0.065l0.149,-0.061l0.15,-0.058l0.152,-0.054l0.153,-0.051l0.156,-0.047l0.157,-0.043l0.158,-0.039l0.16,-0.035l0.161,-0.031l0.163,-0.028l0.164,-0.023l0.165,-0.019l0.166,-0.015l0.167,-0.011l0.167,-0.006l0.169,-0.002l0.169,0.002Zm-0.232,4.128l-0.062,0.002l-0.061,0.004l-0.061,0.006l-0.06,0.007l-0.059,0.008l-0.059,0.01l-0.059,0.011l-0.058,0.013l-0.057,0.014l-0.057,0.016l-0.056,0.017l-0.055,0.018l-0.056,0.02l-0.054,0.021l-0.054,0.022l-0.053,0.024l-0.053,0.025l-0.052,0.026l-0.052,0.027l-0.05,0.029l-0.051,0.03l-0.049,0.031l-0.049,0.033l-0.048,0.033l-0.047,0.035l-0.046,0.036l-0.046,0.037l-0.044,0.039l-0.044,0.039l-0.043,0.04l-0.042,0.042l-0.041,0.042l-0.04,0.044l-0.039,0.044l-0.038,0.046l-0.037,0.046l-0.036,0.048l-0.035,0.048l-0.033,0.049l-0.033,0.05l-0.031,0.05l-0.03,0.052l-0.029,0.052l-0.028,0.053l-0.026,0.054l-0.025,0.054l-0.024,0.055l-0.023,0.056l-0.021,0.056l-0.02,0.057l-0.018,0.058l-0.017,0.059l-0.016,0.059l-0.014,0.059l-0.013,0.06l-0.012,0.061l-0.01,0.062l-0.009,0.062l-0.007,0.062l-0.005,0.064l-0.004,0.063l-0.003,0.065l0,0.065l0,0.066l0.003,0.064l0.004,0.064l0.005,0.063l0.007,0.063l0.009,0.062l0.01,0.062l0.012,0.06l0.013,0.061l0.014,0.059l0.016,0.059l0.017,0.058l0.018,0.058l0.02,0.057l0.021,0.057l0.023,0.055l0.024,0.056l0.025,0.054l0.026,0.054l0.028,0.053l0.029,0.052l0.03,0.051l0.031,0.051l0.033,0.05l0.033,0.049l0.035,0.048l0.036,0.047l0.037,0.047l0.038,0.045l0.039,0.045l0.04,0.043l0.041,0.043l0.042,0.041l0.043,0.041l0.044,0.039l0.044,0.038l0.046,0.037l0.046,0.036l0.047,0.035l0.048,0.034l0.049,0.032l0.049,0.032l0.051,0.03l0.05,0.028l0.052,0.028l0.052,0.026l0.053,0.025l0.053,0.024l0.054,0.022l0.054,0.021l0.056,0.02l0.055,0.018l0.056,0.017l0.057,0.015l0.057,0.015l0.058,0.012l0.059,0.012l0.059,0.01l0.059,0.008l0.06,0.007l0.061,0.005l0.061,0.004l0.062,0.003l0.063,0.001l0.063,-0.001l0.062,-0.003l0.061,-0.004l0.061,-0.005l0.06,-0.007l0.059,-0.008l0.059,-0.01l0.059,-0.012l0.058,-0.012l0.057,-0.015l0.057,-0.015l0.056,-0.017l0.056,-0.018l0.055,-0.02l0.054,-0.021l0.054,-0.022l0.053,-0.024l0.053,-0.025l0.052,-0.026l0.052,-0.028l0.051,-0.028l0.05,-0.031l0.049,-0.031l0.049,-0.032l0.048,-0.034l0.047,-0.035l0.046,-0.036l0.046,-0.037l0.045,-0.038l0.043,-0.039l0.043,-0.041l0.042,-0.041l0.041,-0.043l0.04,-0.043l0.039,-0.045l0.038,-0.045l0.037,-0.046l0.036,-0.048l0.035,-0.048l0.033,-0.049l0.033,-0.05l0.031,-0.05l0.03,-0.052l0.029,-0.052l0.028,-0.053l0.026,-0.054l0.025,-0.054l0.024,-0.055l0.023,-0.056l0.021,-0.057l0.02,-0.057l0.018,-0.058l0.017,-0.058l0.016,-0.059l0.014,-0.059l0.013,-0.061l0.012,-0.06l0.01,-0.062l0.009,-0.062l0.007,-0.063l0.005,-0.063l0.004,-0.064l0.003,-0.064l0.001,-0.066l-0.001,-0.065l-0.003,-0.064l-0.004,-0.064l-0.005,-0.064l-0.007,-0.062l-0.009,-0.062l-0.01,-0.062l-0.012,-0.061l-0.013,-0.06l-0.014,-0.059l-0.016,-0.059l-0.017,-0.059l-0.018,-0.058l-0.02,-0.057l-0.021,-0.056l-0.023,-0.056l-0.024,-0.055l-0.025,-0.054l-0.026,-0.054l-0.028,-0.053l-0.029,-0.052l-0.03,-0.052l-0.031,-0.05l-0.033,-0.05l-0.033,-0.049l-0.035,-0.048l-0.036,-0.048l-0.037,-0.046l-0.038,-0.046l-0.039,-0.044l-0.04,-0.044l-0.041,-0.042l-0.042,-0.042l-0.043,-0.04l-0.043,-0.039l-0.045,-0.039l-0.046,-0.037l-0.046,-0.036l-0.047,-0.035l-0.048,-0.033l-0.049,-0.033l-0.049,-0.031l-0.05,-0.03l-0.051,-0.029l-0.052,-0.027l-0.052,-0.026l-0.053,-0.025l-0.053,-0.024l-0.054,-0.022l-0.054,-0.021l-0.055,-0.02l-0.056,-0.018l-0.056,-0.017l-0.057,-0.016l-0.057,-0.014l-0.058,-0.013l-0.059,-0.011l-0.059,-0.01l-0.059,-0.008l-0.06,-0.007l-0.061,-0.006l-0.061,-0.004l-0.062,-0.002l-0.063,-0.001l-0.063,0.001Z" fill="rgba(173,177,181,0.7)"></path>
                <rect class="pk-key" x="112" y="51.5" width="10.2" height="3" fill="rgba(173,177,181,0.7)"></rect>
                <rect class="pk-key" x="113.2" y="54.5" width="2" height="3" fill="rgba(173,177,181,0.7)"></rect>
                <rect class="pk-key" x="117" y="54.5" width="2" height="3" fill="rgba(173,177,181,0.7)"></rect>
          
        </g>
        <g class="joint-table-row-group" onmousedown="QdbdJS.onRowMouseDown()" onmousemove="QdbdJS.onRowMouseMove()" onmouseup="QdbdJS.onRowMouseUp(39)">
          <rect x="0" y="63" class="joint-table-row" width="162" height="25" stroke="none"></rect>
          
          
          <text x="0" y="85" class="joint-field-text" id="v-945" pointer-events="none" fill="#333" font-size="12px">
            <tspan x="14" y="85" text-anchor="start" class="joint-field-name fk" fill="#222" font-weight="bold">
              user_id
            </tspan>
            <tspan x="148" y="85" text-anchor="end" class="joint-field-type" fill="#adb1b5">
              int
            </tspan>
          </text>
          
          
        </g>
        <g class="joint-table-row-group" onmousedown="QdbdJS.onRowMouseDown()" onmousemove="QdbdJS.onRowMouseMove()" onmouseup="QdbdJS.onRowMouseUp(40)">
          <rect x="0" y="88" class="joint-table-row" width="162" height="25" stroke="none"></rect>
          
          
          <text x="0" y="110" class="joint-field-text" id="v-946" pointer-events="none" fill="#333" font-size="12px">
            <tspan x="14" y="110" text-anchor="start" class="joint-field-name ">
              title
            </tspan>
            <tspan x="148" y="110" text-anchor="end" class="joint-field-type" fill="#adb1b5">
              string
            </tspan>
          </text>
          
          
        </g>
        <g class="joint-table-row-group" onmousedown="QdbdJS.onRowMouseDown()" onmousemove="QdbdJS.onRowMouseMove()" onmouseup="QdbdJS.onRowMouseUp(41)">
          <rect x="0" y="113" class="joint-table-row" width="162" height="25" stroke="none"></rect>
          
          
          <text x="0" y="135" class="joint-field-text" id="v-947" pointer-events="none" fill="#333" font-size="12px">
            <tspan x="14" y="135" text-anchor="start" class="joint-field-name ">
              description
            </tspan>
            <tspan x="148" y="135" text-anchor="end" class="joint-field-type" fill="#adb1b5">
              string
            </tspan>
          </text>
          
          
        </g>
        <g class="joint-table-row-group" onmousedown="QdbdJS.onRowMouseDown()" onmousemove="QdbdJS.onRowMouseMove()" onmouseup="QdbdJS.onRowMouseUp(42)">
          <rect x="0" y="138" class="joint-table-row" width="162" height="25" stroke="none"></rect>
          
          
          <text x="0" y="160" class="joint-field-text" id="v-948" pointer-events="none" fill="#333" font-size="12px">
            <tspan x="14" y="160" text-anchor="start" class="joint-field-name ">
              location
            </tspan>
            <tspan x="148" y="160" text-anchor="end" class="joint-field-type" fill="#adb1b5">
              string
            </tspan>
          </text>
          
          
        </g>
        <g class="joint-table-row-group" onmousedown="QdbdJS.onRowMouseDown()" onmousemove="QdbdJS.onRowMouseMove()" onmouseup="QdbdJS.onRowMouseUp(43)">
          <rect x="0" y="163" class="joint-table-row" width="162" height="25" stroke="none"></rect>
          
          
          <text x="0" y="185" class="joint-field-text" id="v-949" pointer-events="none" fill="#333" font-size="12px">
            <tspan x="14" y="185" text-anchor="start" class="joint-field-name ">
              listedDate
            </tspan>
            <tspan x="148" y="185" text-anchor="end" class="joint-field-type" fill="#adb1b5">
              date
            </tspan>
          </text>
          
          
        </g>
        <g class="joint-table-row-group" onmousedown="QdbdJS.onRowMouseDown()" onmousemove="QdbdJS.onRowMouseMove()" onmouseup="QdbdJS.onRowMouseUp(44)">
          <rect x="0" y="188" class="joint-table-row" width="162" height="25" stroke="none"></rect>
          
          
          <text x="0" y="210" class="joint-field-text" id="v-950" pointer-events="none" fill="#333" font-size="12px">
            <tspan x="14" y="210" text-anchor="start" class="joint-field-name ">
              dates
            </tspan>
            <tspan x="148" y="210" text-anchor="end" class="joint-field-type" fill="#adb1b5">
              string
            </tspan>
          </text>
          
          
        </g>
        <g class="joint-table-row-group" onmousedown="QdbdJS.onRowMouseDown()" onmousemove="QdbdJS.onRowMouseMove()" onmouseup="QdbdJS.onRowMouseUp(45)">
          <rect x="0" y="213" class="joint-table-row" width="162" height="31" stroke="none"></rect>
          
          
          <text x="0" y="235" class="joint-field-text" id="v-951" pointer-events="none" fill="#333" font-size="12px">
            <tspan x="14" y="235" text-anchor="start" class="joint-field-name ">
              payRate
            </tspan>
            <tspan x="148" y="235" text-anchor="end" class="joint-field-type" fill="#adb1b5">
              string
            </tspan>
          </text>
          
          
        <rect x="0" y="244" class="joint-table-row" width="162" height="6" stroke="none"></rect>
        
        </g>
          </g>
        </g></g><g id="j_62" model-id="a57fd5a7-dee4-4af5-a5fe-bb2c087484eb" class="element basic newt joint-theme-default" magnet="false" fill="#ffffff" stroke="none" transform="translate(656,127)" font-family="Roboto,'Helvetica Neue', sans-serif"><g class="joint-table" onmousedown="QdbdJS.onTableMouseDown(this)" onmouseup="QdbdJS.onTableMouseUp(this)" id="v-953">
          <rect x="0" y="0" width="169" height="38" class="joint-table-title" onmousedown="QdbdJS.onRowMouseDown()" onmousemove="QdbdJS.onRowMouseMove()" onmouseup="QdbdJS.onRowMouseUp(47)" fill="#005aa0" stroke="#005aa0"></rect>
          <text x="14" y="24" text-anchor="start" class="joint-table-title-text" id="v-960" pointer-events="none" font-size="14px">job_work_type</text>
          <g class="joint-table-rows">
            
        <g class="joint-table-row-group" onmousedown="QdbdJS.onRowMouseDown()" onmousemove="QdbdJS.onRowMouseMove()" onmouseup="QdbdJS.onRowMouseUp(49)">
          <rect x="0" y="38" class="joint-table-row" width="169" height="25" stroke="none"></rect>
          
          
          <text x="0" y="60" class="joint-field-text" id="v-961" pointer-events="none" fill="#333" font-size="12px">
            <tspan x="14" y="60" text-anchor="start" class="joint-field-name pk" fill="#005aa0" font-weight="bold">
              id
            </tspan>
            <tspan x="155" y="60" text-anchor="end" class="joint-field-type" fill="#adb1b5">
              int
            </tspan>
          </text>
          <path class="pk-key" transform="matrix(0.7, 0, 0, 0.7, 118, 47)" d="M22.208,2.205l0.167,0.006l0.167,0.011l0.166,0.015l0.165,0.019l0.164,0.023l0.163,0.028l0.161,0.031l0.16,0.035l0.158,0.039l0.157,0.043l0.156,0.047l0.153,0.051l0.152,0.054l0.151,0.058l0.148,0.061l0.146,0.065l0.145,0.068l0.142,0.072l0.141,0.075l0.138,0.078l0.136,0.082l0.134,0.085l0.132,0.087l0.129,0.091l0.127,0.094l0.125,0.097l0.122,0.099l0.12,0.103l0.117,0.105l0.114,0.108l0.112,0.11l0.11,0.114l0.106,0.116l0.104,0.118l0.101,0.121l0.098,0.123l0.096,0.126l0.092,0.128l0.089,0.13l0.087,0.133l0.083,0.135l0.08,0.137l0.077,0.139l0.074,0.141l0.07,0.144l0.067,0.145l0.064,0.147l0.06,0.149l0.056,0.151l0.053,0.152l0.05,0.154l0.046,0.156l0.042,0.157l0.038,0.159l0.035,0.16l0.03,0.162l0.027,0.162l0.023,0.164l0.018,0.165l0.015,0.167l0.01,0.167l0.007,0.168l0.002,0.168l-0.002,0.169l-0.007,0.168l-0.01,0.167l-0.015,0.166l-0.018,0.166l-0.023,0.163l-0.027,0.163l-0.03,0.162l-0.035,0.16l-0.038,0.159l-0.042,0.157l-0.046,0.156l-0.05,0.154l-0.053,0.152l-0.056,0.151l-0.06,0.149l-0.064,0.147l-0.067,0.145l-0.07,0.143l-0.074,0.142l-0.077,0.139l-0.08,0.137l-0.083,0.135l-0.087,0.132l-0.089,0.131l-0.092,0.128l-0.096,0.125l-0.098,0.124l-0.101,0.121l-0.104,0.118l-0.106,0.116l-0.11,0.113l-0.112,0.111l-0.114,0.108l-0.117,0.105l-0.12,0.103l-0.122,0.099l-0.125,0.097l-0.127,0.094l-0.129,0.09l-0.132,0.088l-0.134,0.085l-0.136,0.081l-0.138,0.078l-0.141,0.076l-0.142,0.071l-0.145,0.069l-0.146,0.064l-0.148,0.062l-0.151,0.058l-0.152,0.054l-0.153,0.05l-0.156,0.047l-0.157,0.043l-0.158,0.039l-0.16,0.036l-0.161,0.031l-0.163,0.027l-0.164,0.024l-0.165,0.019l-0.166,0.015l-0.167,0.01l-0.167,0.007l-0.169,0.002l-0.168,-0.002l-0.168,-0.007l-0.167,-0.01l-0.166,-0.015l-0.165,-0.019l-0.164,-0.024l-0.163,-0.027l-0.161,-0.031l-0.16,-0.036l-0.158,-0.039l-0.157,-0.043l-0.156,-0.047l-0.153,-0.05l-0.152,-0.054l-0.15,-0.058l-0.149,-0.062l-0.146,-0.064l-0.145,-0.069l-0.142,-0.071l-0.141,-0.076l-0.138,-0.078l-0.136,-0.081l-0.134,-0.085l-0.132,-0.088l-0.129,-0.09l-0.127,-0.094l-0.125,-0.097l-0.122,-0.099l-0.12,-0.103l-0.117,-0.105l-0.114,-0.108l-0.112,-0.111l-0.11,-0.113l-0.106,-0.116l-0.104,-0.118l-0.101,-0.121l-0.098,-0.123l-0.096,-0.126l-0.092,-0.128l-0.089,-0.131l-0.087,-0.132l-0.083,-0.135l-0.08,-0.137l-0.077,-0.139l-0.073,-0.142l-0.071,-0.143l-0.067,-0.145l-0.063,-0.147l-0.061,-0.149l-0.056,-0.151l-0.053,-0.152l-0.05,-0.154l-0.046,-0.156l-0.042,-0.157l-0.038,-0.159l-0.035,-0.16l-0.03,-0.162l-0.027,-0.163l-0.023,-0.164l-0.018,-0.165l-0.015,-0.166l-0.01,-0.167l-0.007,-0.168l-0.002,-0.169l0.002,-0.168l0.007,-0.168l0.01,-0.167l0.015,-0.167l0.018,-0.165l0.023,-0.164l0.027,-0.162l0.03,-0.162l0.035,-0.16l0.038,-0.159l0.042,-0.157l0.046,-0.156l0.05,-0.154l0.053,-0.152l0.056,-0.151l0.061,-0.149l0.063,-0.147l0.067,-0.145l0.071,-0.144l0.073,-0.141l0.077,-0.139l0.08,-0.137l0.083,-0.135l0.087,-0.133l0.089,-0.13l0.092,-0.128l0.096,-0.126l0.098,-0.123l0.101,-0.121l0.104,-0.118l0.106,-0.116l0.11,-0.114l0.112,-0.11l0.114,-0.108l0.117,-0.105l0.12,-0.103l0.122,-0.099l0.125,-0.097l0.127,-0.094l0.129,-0.091l0.132,-0.087l0.134,-0.085l0.136,-0.081l0.138,-0.079l0.141,-0.075l0.142,-0.072l0.145,-0.068l0.146,-0.065l0.149,-0.061l0.15,-0.058l0.152,-0.054l0.153,-0.051l0.156,-0.047l0.157,-0.043l0.158,-0.039l0.16,-0.035l0.161,-0.031l0.163,-0.028l0.164,-0.023l0.165,-0.019l0.166,-0.015l0.167,-0.011l0.167,-0.006l0.169,-0.002l0.169,0.002Zm-0.232,4.128l-0.062,0.002l-0.061,0.004l-0.061,0.006l-0.06,0.007l-0.059,0.008l-0.059,0.01l-0.059,0.011l-0.058,0.013l-0.057,0.014l-0.057,0.016l-0.056,0.017l-0.055,0.018l-0.056,0.02l-0.054,0.021l-0.054,0.022l-0.053,0.024l-0.053,0.025l-0.052,0.026l-0.052,0.027l-0.05,0.029l-0.051,0.03l-0.049,0.031l-0.049,0.033l-0.048,0.033l-0.047,0.035l-0.046,0.036l-0.046,0.037l-0.044,0.039l-0.044,0.039l-0.043,0.04l-0.042,0.042l-0.041,0.042l-0.04,0.044l-0.039,0.044l-0.038,0.046l-0.037,0.046l-0.036,0.048l-0.035,0.048l-0.033,0.049l-0.033,0.05l-0.031,0.05l-0.03,0.052l-0.029,0.052l-0.028,0.053l-0.026,0.054l-0.025,0.054l-0.024,0.055l-0.023,0.056l-0.021,0.056l-0.02,0.057l-0.018,0.058l-0.017,0.059l-0.016,0.059l-0.014,0.059l-0.013,0.06l-0.012,0.061l-0.01,0.062l-0.009,0.062l-0.007,0.062l-0.005,0.064l-0.004,0.063l-0.003,0.065l0,0.065l0,0.066l0.003,0.064l0.004,0.064l0.005,0.063l0.007,0.063l0.009,0.062l0.01,0.062l0.012,0.06l0.013,0.061l0.014,0.059l0.016,0.059l0.017,0.058l0.018,0.058l0.02,0.057l0.021,0.057l0.023,0.055l0.024,0.056l0.025,0.054l0.026,0.054l0.028,0.053l0.029,0.052l0.03,0.051l0.031,0.051l0.033,0.05l0.033,0.049l0.035,0.048l0.036,0.047l0.037,0.047l0.038,0.045l0.039,0.045l0.04,0.043l0.041,0.043l0.042,0.041l0.043,0.041l0.044,0.039l0.044,0.038l0.046,0.037l0.046,0.036l0.047,0.035l0.048,0.034l0.049,0.032l0.049,0.032l0.051,0.03l0.05,0.028l0.052,0.028l0.052,0.026l0.053,0.025l0.053,0.024l0.054,0.022l0.054,0.021l0.056,0.02l0.055,0.018l0.056,0.017l0.057,0.015l0.057,0.015l0.058,0.012l0.059,0.012l0.059,0.01l0.059,0.008l0.06,0.007l0.061,0.005l0.061,0.004l0.062,0.003l0.063,0.001l0.063,-0.001l0.062,-0.003l0.061,-0.004l0.061,-0.005l0.06,-0.007l0.059,-0.008l0.059,-0.01l0.059,-0.012l0.058,-0.012l0.057,-0.015l0.057,-0.015l0.056,-0.017l0.056,-0.018l0.055,-0.02l0.054,-0.021l0.054,-0.022l0.053,-0.024l0.053,-0.025l0.052,-0.026l0.052,-0.028l0.051,-0.028l0.05,-0.031l0.049,-0.031l0.049,-0.032l0.048,-0.034l0.047,-0.035l0.046,-0.036l0.046,-0.037l0.045,-0.038l0.043,-0.039l0.043,-0.041l0.042,-0.041l0.041,-0.043l0.04,-0.043l0.039,-0.045l0.038,-0.045l0.037,-0.046l0.036,-0.048l0.035,-0.048l0.033,-0.049l0.033,-0.05l0.031,-0.05l0.03,-0.052l0.029,-0.052l0.028,-0.053l0.026,-0.054l0.025,-0.054l0.024,-0.055l0.023,-0.056l0.021,-0.057l0.02,-0.057l0.018,-0.058l0.017,-0.058l0.016,-0.059l0.014,-0.059l0.013,-0.061l0.012,-0.06l0.01,-0.062l0.009,-0.062l0.007,-0.063l0.005,-0.063l0.004,-0.064l0.003,-0.064l0.001,-0.066l-0.001,-0.065l-0.003,-0.064l-0.004,-0.064l-0.005,-0.064l-0.007,-0.062l-0.009,-0.062l-0.01,-0.062l-0.012,-0.061l-0.013,-0.06l-0.014,-0.059l-0.016,-0.059l-0.017,-0.059l-0.018,-0.058l-0.02,-0.057l-0.021,-0.056l-0.023,-0.056l-0.024,-0.055l-0.025,-0.054l-0.026,-0.054l-0.028,-0.053l-0.029,-0.052l-0.03,-0.052l-0.031,-0.05l-0.033,-0.05l-0.033,-0.049l-0.035,-0.048l-0.036,-0.048l-0.037,-0.046l-0.038,-0.046l-0.039,-0.044l-0.04,-0.044l-0.041,-0.042l-0.042,-0.042l-0.043,-0.04l-0.043,-0.039l-0.045,-0.039l-0.046,-0.037l-0.046,-0.036l-0.047,-0.035l-0.048,-0.033l-0.049,-0.033l-0.049,-0.031l-0.05,-0.03l-0.051,-0.029l-0.052,-0.027l-0.052,-0.026l-0.053,-0.025l-0.053,-0.024l-0.054,-0.022l-0.054,-0.021l-0.055,-0.02l-0.056,-0.018l-0.056,-0.017l-0.057,-0.016l-0.057,-0.014l-0.058,-0.013l-0.059,-0.011l-0.059,-0.01l-0.059,-0.008l-0.06,-0.007l-0.061,-0.006l-0.061,-0.004l-0.062,-0.002l-0.063,-0.001l-0.063,0.001Z" fill="rgba(173,177,181,0.7)"></path>
                <rect class="pk-key" x="119" y="51.5" width="10.2" height="3" fill="rgba(173,177,181,0.7)"></rect>
                <rect class="pk-key" x="120.2" y="54.5" width="2" height="3" fill="rgba(173,177,181,0.7)"></rect>
                <rect class="pk-key" x="124" y="54.5" width="2" height="3" fill="rgba(173,177,181,0.7)"></rect>
          
        </g>
        <g class="joint-table-row-group" onmousedown="QdbdJS.onRowMouseDown()" onmousemove="QdbdJS.onRowMouseMove()" onmouseup="QdbdJS.onRowMouseUp(50)">
          <rect x="0" y="63" class="joint-table-row" width="169" height="25" stroke="none"></rect>
          
          
          <text x="0" y="85" class="joint-field-text" id="v-962" pointer-events="none" fill="#333" font-size="12px">
            <tspan x="14" y="85" text-anchor="start" class="joint-field-name fk" fill="#222" font-weight="bold">
              job_id
            </tspan>
            <tspan x="155" y="85" text-anchor="end" class="joint-field-type" fill="#adb1b5">
              int
            </tspan>
          </text>
          
          
        </g>
        <g class="joint-table-row-group" onmousedown="QdbdJS.onRowMouseDown()" onmousemove="QdbdJS.onRowMouseMove()" onmouseup="QdbdJS.onRowMouseUp(51)">
          <rect x="0" y="88" class="joint-table-row" width="169" height="31" stroke="none"></rect>
          
          
          <text x="0" y="110" class="joint-field-text" id="v-963" pointer-events="none" fill="#333" font-size="12px">
            <tspan x="14" y="110" text-anchor="start" class="joint-field-name fk" fill="#222" font-weight="bold">
              work_type_id
            </tspan>
            <tspan x="155" y="110" text-anchor="end" class="joint-field-type" fill="#adb1b5">
              int
            </tspan>
          </text>
          
          
        <rect x="0" y="119" class="joint-table-row" width="169" height="6" stroke="none"></rect>
        
        </g>
          </g>
        </g></g><g id="j_63" model-id="aad29300-9875-42e5-aa4c-c7ee1436fdae" class="element basic newt joint-theme-default" magnet="false" fill="#ffffff" stroke="none" transform="translate(111,137)" font-family="Roboto,'Helvetica Neue', sans-serif"><g class="joint-table" onmousedown="QdbdJS.onTableMouseDown(this)" onmouseup="QdbdJS.onTableMouseUp(this)" id="v-965">
          <rect x="0" y="0" width="208" height="38" class="joint-table-title" onmousedown="QdbdJS.onRowMouseDown()" onmousemove="QdbdJS.onRowMouseMove()" onmouseup="QdbdJS.onRowMouseUp(53)" fill="#005aa0" stroke="#005aa0"></rect>
          <text x="14" y="24" text-anchor="start" class="joint-table-title-text" id="v-972" pointer-events="none" font-size="14px">talent_work_type</text>
          <g class="joint-table-rows">
            
        <g class="joint-table-row-group" onmousedown="QdbdJS.onRowMouseDown()" onmousemove="QdbdJS.onRowMouseMove()" onmouseup="QdbdJS.onRowMouseUp(55)">
          <rect x="0" y="38" class="joint-table-row" width="208" height="25" stroke="none"></rect>
          
          
          <text x="0" y="60" class="joint-field-text" id="v-973" pointer-events="none" fill="#333" font-size="12px">
            <tspan x="14" y="60" text-anchor="start" class="joint-field-name pk" fill="#005aa0" font-weight="bold">
              id
            </tspan>
            <tspan x="194" y="60" text-anchor="end" class="joint-field-type" fill="#adb1b5">
              int
            </tspan>
          </text>
          <path class="pk-key" transform="matrix(0.7, 0, 0, 0.7, 157, 47)" d="M22.208,2.205l0.167,0.006l0.167,0.011l0.166,0.015l0.165,0.019l0.164,0.023l0.163,0.028l0.161,0.031l0.16,0.035l0.158,0.039l0.157,0.043l0.156,0.047l0.153,0.051l0.152,0.054l0.151,0.058l0.148,0.061l0.146,0.065l0.145,0.068l0.142,0.072l0.141,0.075l0.138,0.078l0.136,0.082l0.134,0.085l0.132,0.087l0.129,0.091l0.127,0.094l0.125,0.097l0.122,0.099l0.12,0.103l0.117,0.105l0.114,0.108l0.112,0.11l0.11,0.114l0.106,0.116l0.104,0.118l0.101,0.121l0.098,0.123l0.096,0.126l0.092,0.128l0.089,0.13l0.087,0.133l0.083,0.135l0.08,0.137l0.077,0.139l0.074,0.141l0.07,0.144l0.067,0.145l0.064,0.147l0.06,0.149l0.056,0.151l0.053,0.152l0.05,0.154l0.046,0.156l0.042,0.157l0.038,0.159l0.035,0.16l0.03,0.162l0.027,0.162l0.023,0.164l0.018,0.165l0.015,0.167l0.01,0.167l0.007,0.168l0.002,0.168l-0.002,0.169l-0.007,0.168l-0.01,0.167l-0.015,0.166l-0.018,0.166l-0.023,0.163l-0.027,0.163l-0.03,0.162l-0.035,0.16l-0.038,0.159l-0.042,0.157l-0.046,0.156l-0.05,0.154l-0.053,0.152l-0.056,0.151l-0.06,0.149l-0.064,0.147l-0.067,0.145l-0.07,0.143l-0.074,0.142l-0.077,0.139l-0.08,0.137l-0.083,0.135l-0.087,0.132l-0.089,0.131l-0.092,0.128l-0.096,0.125l-0.098,0.124l-0.101,0.121l-0.104,0.118l-0.106,0.116l-0.11,0.113l-0.112,0.111l-0.114,0.108l-0.117,0.105l-0.12,0.103l-0.122,0.099l-0.125,0.097l-0.127,0.094l-0.129,0.09l-0.132,0.088l-0.134,0.085l-0.136,0.081l-0.138,0.078l-0.141,0.076l-0.142,0.071l-0.145,0.069l-0.146,0.064l-0.148,0.062l-0.151,0.058l-0.152,0.054l-0.153,0.05l-0.156,0.047l-0.157,0.043l-0.158,0.039l-0.16,0.036l-0.161,0.031l-0.163,0.027l-0.164,0.024l-0.165,0.019l-0.166,0.015l-0.167,0.01l-0.167,0.007l-0.169,0.002l-0.168,-0.002l-0.168,-0.007l-0.167,-0.01l-0.166,-0.015l-0.165,-0.019l-0.164,-0.024l-0.163,-0.027l-0.161,-0.031l-0.16,-0.036l-0.158,-0.039l-0.157,-0.043l-0.156,-0.047l-0.153,-0.05l-0.152,-0.054l-0.15,-0.058l-0.149,-0.062l-0.146,-0.064l-0.145,-0.069l-0.142,-0.071l-0.141,-0.076l-0.138,-0.078l-0.136,-0.081l-0.134,-0.085l-0.132,-0.088l-0.129,-0.09l-0.127,-0.094l-0.125,-0.097l-0.122,-0.099l-0.12,-0.103l-0.117,-0.105l-0.114,-0.108l-0.112,-0.111l-0.11,-0.113l-0.106,-0.116l-0.104,-0.118l-0.101,-0.121l-0.098,-0.123l-0.096,-0.126l-0.092,-0.128l-0.089,-0.131l-0.087,-0.132l-0.083,-0.135l-0.08,-0.137l-0.077,-0.139l-0.073,-0.142l-0.071,-0.143l-0.067,-0.145l-0.063,-0.147l-0.061,-0.149l-0.056,-0.151l-0.053,-0.152l-0.05,-0.154l-0.046,-0.156l-0.042,-0.157l-0.038,-0.159l-0.035,-0.16l-0.03,-0.162l-0.027,-0.163l-0.023,-0.164l-0.018,-0.165l-0.015,-0.166l-0.01,-0.167l-0.007,-0.168l-0.002,-0.169l0.002,-0.168l0.007,-0.168l0.01,-0.167l0.015,-0.167l0.018,-0.165l0.023,-0.164l0.027,-0.162l0.03,-0.162l0.035,-0.16l0.038,-0.159l0.042,-0.157l0.046,-0.156l0.05,-0.154l0.053,-0.152l0.056,-0.151l0.061,-0.149l0.063,-0.147l0.067,-0.145l0.071,-0.144l0.073,-0.141l0.077,-0.139l0.08,-0.137l0.083,-0.135l0.087,-0.133l0.089,-0.13l0.092,-0.128l0.096,-0.126l0.098,-0.123l0.101,-0.121l0.104,-0.118l0.106,-0.116l0.11,-0.114l0.112,-0.11l0.114,-0.108l0.117,-0.105l0.12,-0.103l0.122,-0.099l0.125,-0.097l0.127,-0.094l0.129,-0.091l0.132,-0.087l0.134,-0.085l0.136,-0.081l0.138,-0.079l0.141,-0.075l0.142,-0.072l0.145,-0.068l0.146,-0.065l0.149,-0.061l0.15,-0.058l0.152,-0.054l0.153,-0.051l0.156,-0.047l0.157,-0.043l0.158,-0.039l0.16,-0.035l0.161,-0.031l0.163,-0.028l0.164,-0.023l0.165,-0.019l0.166,-0.015l0.167,-0.011l0.167,-0.006l0.169,-0.002l0.169,0.002Zm-0.232,4.128l-0.062,0.002l-0.061,0.004l-0.061,0.006l-0.06,0.007l-0.059,0.008l-0.059,0.01l-0.059,0.011l-0.058,0.013l-0.057,0.014l-0.057,0.016l-0.056,0.017l-0.055,0.018l-0.056,0.02l-0.054,0.021l-0.054,0.022l-0.053,0.024l-0.053,0.025l-0.052,0.026l-0.052,0.027l-0.05,0.029l-0.051,0.03l-0.049,0.031l-0.049,0.033l-0.048,0.033l-0.047,0.035l-0.046,0.036l-0.046,0.037l-0.044,0.039l-0.044,0.039l-0.043,0.04l-0.042,0.042l-0.041,0.042l-0.04,0.044l-0.039,0.044l-0.038,0.046l-0.037,0.046l-0.036,0.048l-0.035,0.048l-0.033,0.049l-0.033,0.05l-0.031,0.05l-0.03,0.052l-0.029,0.052l-0.028,0.053l-0.026,0.054l-0.025,0.054l-0.024,0.055l-0.023,0.056l-0.021,0.056l-0.02,0.057l-0.018,0.058l-0.017,0.059l-0.016,0.059l-0.014,0.059l-0.013,0.06l-0.012,0.061l-0.01,0.062l-0.009,0.062l-0.007,0.062l-0.005,0.064l-0.004,0.063l-0.003,0.065l0,0.065l0,0.066l0.003,0.064l0.004,0.064l0.005,0.063l0.007,0.063l0.009,0.062l0.01,0.062l0.012,0.06l0.013,0.061l0.014,0.059l0.016,0.059l0.017,0.058l0.018,0.058l0.02,0.057l0.021,0.057l0.023,0.055l0.024,0.056l0.025,0.054l0.026,0.054l0.028,0.053l0.029,0.052l0.03,0.051l0.031,0.051l0.033,0.05l0.033,0.049l0.035,0.048l0.036,0.047l0.037,0.047l0.038,0.045l0.039,0.045l0.04,0.043l0.041,0.043l0.042,0.041l0.043,0.041l0.044,0.039l0.044,0.038l0.046,0.037l0.046,0.036l0.047,0.035l0.048,0.034l0.049,0.032l0.049,0.032l0.051,0.03l0.05,0.028l0.052,0.028l0.052,0.026l0.053,0.025l0.053,0.024l0.054,0.022l0.054,0.021l0.056,0.02l0.055,0.018l0.056,0.017l0.057,0.015l0.057,0.015l0.058,0.012l0.059,0.012l0.059,0.01l0.059,0.008l0.06,0.007l0.061,0.005l0.061,0.004l0.062,0.003l0.063,0.001l0.063,-0.001l0.062,-0.003l0.061,-0.004l0.061,-0.005l0.06,-0.007l0.059,-0.008l0.059,-0.01l0.059,-0.012l0.058,-0.012l0.057,-0.015l0.057,-0.015l0.056,-0.017l0.056,-0.018l0.055,-0.02l0.054,-0.021l0.054,-0.022l0.053,-0.024l0.053,-0.025l0.052,-0.026l0.052,-0.028l0.051,-0.028l0.05,-0.031l0.049,-0.031l0.049,-0.032l0.048,-0.034l0.047,-0.035l0.046,-0.036l0.046,-0.037l0.045,-0.038l0.043,-0.039l0.043,-0.041l0.042,-0.041l0.041,-0.043l0.04,-0.043l0.039,-0.045l0.038,-0.045l0.037,-0.046l0.036,-0.048l0.035,-0.048l0.033,-0.049l0.033,-0.05l0.031,-0.05l0.03,-0.052l0.029,-0.052l0.028,-0.053l0.026,-0.054l0.025,-0.054l0.024,-0.055l0.023,-0.056l0.021,-0.057l0.02,-0.057l0.018,-0.058l0.017,-0.058l0.016,-0.059l0.014,-0.059l0.013,-0.061l0.012,-0.06l0.01,-0.062l0.009,-0.062l0.007,-0.063l0.005,-0.063l0.004,-0.064l0.003,-0.064l0.001,-0.066l-0.001,-0.065l-0.003,-0.064l-0.004,-0.064l-0.005,-0.064l-0.007,-0.062l-0.009,-0.062l-0.01,-0.062l-0.012,-0.061l-0.013,-0.06l-0.014,-0.059l-0.016,-0.059l-0.017,-0.059l-0.018,-0.058l-0.02,-0.057l-0.021,-0.056l-0.023,-0.056l-0.024,-0.055l-0.025,-0.054l-0.026,-0.054l-0.028,-0.053l-0.029,-0.052l-0.03,-0.052l-0.031,-0.05l-0.033,-0.05l-0.033,-0.049l-0.035,-0.048l-0.036,-0.048l-0.037,-0.046l-0.038,-0.046l-0.039,-0.044l-0.04,-0.044l-0.041,-0.042l-0.042,-0.042l-0.043,-0.04l-0.043,-0.039l-0.045,-0.039l-0.046,-0.037l-0.046,-0.036l-0.047,-0.035l-0.048,-0.033l-0.049,-0.033l-0.049,-0.031l-0.05,-0.03l-0.051,-0.029l-0.052,-0.027l-0.052,-0.026l-0.053,-0.025l-0.053,-0.024l-0.054,-0.022l-0.054,-0.021l-0.055,-0.02l-0.056,-0.018l-0.056,-0.017l-0.057,-0.016l-0.057,-0.014l-0.058,-0.013l-0.059,-0.011l-0.059,-0.01l-0.059,-0.008l-0.06,-0.007l-0.061,-0.006l-0.061,-0.004l-0.062,-0.002l-0.063,-0.001l-0.063,0.001Z" fill="rgba(173,177,181,0.7)"></path>
                <rect class="pk-key" x="158" y="51.5" width="10.2" height="3" fill="rgba(173,177,181,0.7)"></rect>
                <rect class="pk-key" x="159.2" y="54.5" width="2" height="3" fill="rgba(173,177,181,0.7)"></rect>
                <rect class="pk-key" x="163" y="54.5" width="2" height="3" fill="rgba(173,177,181,0.7)"></rect>
          
        </g>
        <g class="joint-table-row-group" onmousedown="QdbdJS.onRowMouseDown()" onmousemove="QdbdJS.onRowMouseMove()" onmouseup="QdbdJS.onRowMouseUp(56)">
          <rect x="0" y="63" class="joint-table-row" width="208" height="25" stroke="none"></rect>
          
          
          <text x="0" y="85" class="joint-field-text" id="v-974" pointer-events="none" fill="#333" font-size="12px">
            <tspan x="14" y="85" text-anchor="start" class="joint-field-name fk" fill="#222" font-weight="bold">
              talent_id
            </tspan>
            <tspan x="194" y="85" text-anchor="end" class="joint-field-type" fill="#adb1b5">
              int
            </tspan>
          </text>
          
          
        </g>
        <g class="joint-table-row-group" onmousedown="QdbdJS.onRowMouseDown()" onmousemove="QdbdJS.onRowMouseMove()" onmouseup="QdbdJS.onRowMouseUp(57)">
          <rect x="0" y="88" class="joint-table-row" width="208" height="31" stroke="none"></rect>
          
          
          <text x="0" y="110" class="joint-field-text" id="v-975" pointer-events="none" fill="#333" font-size="12px">
            <tspan x="14" y="110" text-anchor="start" class="joint-field-name fk" fill="#222" font-weight="bold">
              work_type_id
            </tspan>
            <tspan x="194" y="110" text-anchor="end" class="joint-field-type" fill="#adb1b5">
              int
            </tspan>
          </text>
          
          
        <rect x="0" y="119" class="joint-table-row" width="208" height="6" stroke="none"></rect>
        
        </g>
          </g>
        </g></g></g><defs id="v-4"></defs><text class="qdbd-link" x="10" y="20" font-family="Roboto,'Helvetica Neue', sans-serif">www.quickdatabasediagrams.com</text></svg>